<?xml version="1.0" encoding="utf-8"?>
<!-- Generator: Adobe Illustrator 20.1.0, SVG Export Plug-In . SVG Version: 6.00 Build 0)  -->
<svg version="1.1" id="Layer_1" xmlns="http://www.w3.org/2000/svg" xmlns:xlink="http://www.w3.org/1999/xlink" x="0px" y="0px"
	 viewBox="0 0 100.4 78.7" style="enable-background:new 0 0 100.4 78.7;" xml:space="preserve">
<style type="text/css">
	.st0{fill:none;stroke:#000000;stroke-width:6;stroke-miterlimit:10;}
</style>
<path d="M96.8,35.8H12.7L45.6,6c1.4-1.4,1.4-3.6,0-4.9c-1.4-1.4-3.6-1.4-5,0L1.3,36.6c-0.1,0.1-0.3,0.1-0.4,0.1
	c-0.7,0.7-1,1.6-1,2.6c0,0.9,0.3,1.8,1,2.6C1.1,42,1.2,41.9,1.3,42l39.3,35.6c1.4,1.4,3.6,1.4,5,0c1.4-1.4,1.4-3.6,0-4.9L12.7,42.9
	h84.1c2,0,3.6-1.6,3.6-3.6C100.4,37.4,98.8,35.8,96.8,35.8z"/>
<path class="st0" d="M253.9-296.8"/>
</svg>
