<?xml version="1.0" encoding="utf-8"?>
<!-- Generator: Adobe Illustrator 20.1.0, SVG Export Plug-In . SVG Version: 6.00 Build 0)  -->
<svg version="1.1" id="Layer_1" xmlns="http://www.w3.org/2000/svg" xmlns:xlink="http://www.w3.org/1999/xlink" x="0px" y="0px"
	 viewBox="0 0 100 100" style="enable-background:new 0 0 100 100;" xml:space="preserve">
<style type="text/css">
	.st0{fill:#FFFFFF;stroke:#000000;stroke-miterlimit:10;}
</style>
<line class="st0" x1="-0.5" y1="0" x2="0" y2="100"/>
<line class="st0" x1="1.5" y1="0" x2="1.5" y2="100"/>
<line class="st0" x1="3.5" y1="0" x2="3.5" y2="100"/>
<line class="st0" x1="5.5" y1="0" x2="6" y2="100"/>
<line class="st0" x1="7.5" y1="0" x2="7.5" y2="100"/>
<line class="st0" x1="9.5" y1="0" x2="9.5" y2="100"/>
<line class="st0" x1="11.5" y1="0" x2="12" y2="100"/>
<line class="st0" x1="13.5" y1="0" x2="13.5" y2="100"/>
<line class="st0" x1="15.5" y1="0" x2="15.5" y2="100"/>
<line class="st0" x1="17.5" y1="0" x2="18" y2="100"/>
<line class="st0" x1="19.5" y1="0" x2="19.5" y2="100"/>
<line class="st0" x1="21.5" y1="0" x2="21.5" y2="100"/>
<line class="st0" x1="23.5" y1="0" x2="24" y2="100"/>
<line class="st0" x1="25.5" y1="0" x2="25.5" y2="100"/>
<line class="st0" x1="27.5" y1="0" x2="27.5" y2="100"/>
<line class="st0" x1="29.5" y1="0" x2="30" y2="100"/>
<line class="st0" x1="31.5" y1="0" x2="31.5" y2="100"/>
<line class="st0" x1="33.5" y1="0" x2="33.5" y2="100"/>
<line class="st0" x1="35.5" y1="0" x2="36" y2="100"/>
<line class="st0" x1="37.5" y1="0" x2="37.5" y2="100"/>
<line class="st0" x1="39.5" y1="0" x2="39.5" y2="100"/>
<line class="st0" x1="41.5" y1="0" x2="42" y2="100"/>
<line class="st0" x1="43.5" y1="0" x2="43.5" y2="100"/>
<line class="st0" x1="45.5" y1="0" x2="45.5" y2="100"/>
<line class="st0" x1="47.5" y1="0" x2="48" y2="100"/>
<line class="st0" x1="49.5" y1="0" x2="49.5" y2="100"/>
<line class="st0" x1="51.5" y1="0" x2="51.5" y2="100"/>
<line class="st0" x1="53.5" y1="0" x2="54" y2="100"/>
<line class="st0" x1="55.5" y1="0" x2="55.5" y2="100"/>
<line class="st0" x1="57.5" y1="0" x2="57.5" y2="100"/>
<line class="st0" x1="59.5" y1="0" x2="60" y2="100"/>
<line class="st0" x1="61.5" y1="0" x2="61.5" y2="100"/>
<line class="st0" x1="63.5" y1="0" x2="63.5" y2="100"/>
<line class="st0" x1="65.5" y1="0" x2="66" y2="100"/>
<line class="st0" x1="67.5" y1="0" x2="67.5" y2="100"/>
<line class="st0" x1="69.5" y1="0" x2="69.5" y2="100"/>
<line class="st0" x1="71.5" y1="0" x2="72" y2="100"/>
<line class="st0" x1="73.5" y1="0" x2="73.5" y2="100"/>
<line class="st0" x1="75.5" y1="0" x2="75.5" y2="100"/>
<line class="st0" x1="77.5" y1="0" x2="78" y2="100"/>
<line class="st0" x1="79.5" y1="0" x2="79.5" y2="100"/>
<line class="st0" x1="81.5" y1="0" x2="81.5" y2="100"/>
<line class="st0" x1="83.5" y1="0" x2="84" y2="100"/>
<line class="st0" x1="85.5" y1="0" x2="85.5" y2="100"/>
<line class="st0" x1="87.5" y1="0" x2="87.5" y2="100"/>
<line class="st0" x1="89.5" y1="0" x2="90" y2="100"/>
<line class="st0" x1="91.5" y1="0" x2="91.5" y2="100"/>
<line class="st0" x1="93.5" y1="0" x2="93.5" y2="100"/>
<line class="st0" x1="95.5" y1="0" x2="96" y2="100"/>
<line class="st0" x1="97.5" y1="0" x2="97.5" y2="100"/>
<line class="st0" x1="99.5" y1="0" x2="99.5" y2="100"/>
</svg>
