<?xml version="1.0" encoding="utf-8"?>
<!-- Generator: Adobe Illustrator 21.0.0, SVG Export Plug-In . SVG Version: 6.00 Build 0)  -->
<svg version="1.1" id="Layer_1" xmlns="http://www.w3.org/2000/svg" xmlns:xlink="http://www.w3.org/1999/xlink" x="0px" y="0px"
	 viewBox="0 0 33 33" style="enable-background:new 0 0 33 33;" xml:space="preserve">
<style type="text/css">
	.st0{fill:#292929;}
</style>
<title>code-pen</title>
<path class="st0" d="M32.8,16.5c0,1.6,0,3.1,0,4.7c0,0.7-0.3,1.2-0.9,1.6c-4.8,3.2-9.6,6.4-14.3,9.6c-0.7,0.5-1.4,0.5-2.1,0
	c-4.8-3.2-9.6-6.4-14.4-9.6c-0.6-0.4-0.9-0.9-0.9-1.6c0-3.1,0-6.2,0-9.3c0-0.7,0.3-1.2,0.9-1.6C5.9,7,10.7,3.8,15.5,0.6
	c0.7-0.5,1.4-0.5,2.1,0c4.8,3.2,9.6,6.4,14.4,9.6c0.6,0.4,0.9,0.9,0.9,1.6C32.8,13.4,32.8,14.9,32.8,16.5z M15.2,7.5
	c0-0.9,0-1.8,0-2.7c0-0.2-0.1-0.3-0.1-0.5c-0.2,0.1-0.3,0.1-0.5,0.2c-3.3,2.2-6.7,4.4-10,6.7c-0.5,0.3-0.5,0.4,0,0.7
	c1.3,0.9,2.7,1.8,4,2.7c0.3,0.2,0.6,0.2,0.9,0c1.7-1.2,3.5-2.3,5.3-3.5c0.3-0.2,0.5-0.5,0.5-0.9C15.2,9.3,15.2,8.4,15.2,7.5z
	 M18,4.2c-0.1,0.2-0.1,0.4-0.1,0.5c0,1.8,0,3.7,0,5.5c0,0.3,0.1,0.6,0.4,0.8c1.8,1.2,3.6,2.4,5.4,3.6c0.3,0.2,0.5,0.2,0.8,0
	c1.4-0.9,2.8-1.8,4.1-2.8c0.4-0.3,0.4-0.4,0-0.7C25.1,9,21.8,6.7,18.4,4.5C18.3,4.4,18.2,4.3,18,4.2z M15.2,25.5c0-0.9,0-1.8,0-2.8
	c0-0.3-0.1-0.6-0.4-0.8c-1.8-1.2-3.6-2.4-5.4-3.6c-0.3-0.2-0.5-0.2-0.8,0c-1.4,0.9-2.8,1.8-4.1,2.8c-0.4,0.3-0.4,0.4,0,0.7
	c3.4,2.3,6.7,4.5,10.1,6.7c0.4,0.3,0.5,0.2,0.5-0.3C15.2,27.3,15.2,26.4,15.2,25.5z M17.8,25.5c0,0.9,0,1.8,0,2.8
	c0,0.2,0.1,0.3,0.1,0.5c0.1,0,0.3-0.1,0.4-0.2c3.4-2.2,6.7-4.5,10.1-6.7c0.4-0.3,0.4-0.4,0-0.7c-1.4-0.9-2.7-1.8-4.1-2.7
	c-0.3-0.2-0.5-0.2-0.8,0c-1.8,1.2-3.5,2.4-5.3,3.6c-0.3,0.2-0.4,0.5-0.4,0.8C17.8,23.7,17.8,24.6,17.8,25.5z M21.5,16.5
	c-0.2-0.2-0.4-0.3-0.5-0.4c-1.3-0.9-2.7-1.8-4-2.7c-0.4-0.2-0.6-0.2-0.9,0c-1.3,0.9-2.7,1.8-4.1,2.7c-0.1,0.1-0.3,0.2-0.4,0.3
	c0.1,0.1,0.2,0.2,0.3,0.3c1.4,1,2.9,1.9,4.3,2.9c0.3,0.2,0.5,0.1,0.7,0c1.4-0.9,2.8-1.8,4.1-2.8C21.1,16.8,21.3,16.7,21.5,16.5z
	 M2.9,16.5c0,0.6,0,1.3,0,1.9c0,0.4,0.2,0.5,0.5,0.3c0.9-0.6,1.8-1.2,2.7-1.8c0.3-0.2,0.3-0.4,0-0.6c-0.9-0.6-1.8-1.2-2.7-1.8
	c-0.4-0.2-0.5-0.2-0.5,0.3C2.9,15.3,2.9,15.9,2.9,16.5z M30.1,16.5c0-0.6,0-1.2,0-1.8c0-0.4-0.1-0.5-0.5-0.3
	c-0.9,0.6-1.8,1.2-2.8,1.9c-0.3,0.2-0.3,0.4,0,0.6c0.9,0.6,1.8,1.2,2.7,1.8c0.4,0.3,0.5,0.2,0.5-0.3C30.1,17.7,30.1,17.1,30.1,16.5z
	"/>
</svg>
