<?xml version="1.0" encoding="utf-8"?>
<!-- Generator: Adobe Illustrator 19.1.0, SVG Export Plug-In . SVG Version: 6.00 Build 0)  -->
<svg version="1.1" id="Layer_1" xmlns="http://www.w3.org/2000/svg" xmlns:xlink="http://www.w3.org/1999/xlink" x="0px" y="0px"
	 viewBox="0 0 293 292" style="enable-background:new 0 0 293 292;" xml:space="preserve">
<style type="text/css">
	.st0{fill:#FFFFFF;}
</style>
<g>
	<path d="M288.6,147.3c0,77.5-62.8,140.3-140.3,140.3C70.8,287.6,8,224.8,8,147.3C8,69.8,70.8,7,148.3,7
		C225.8,7,288.6,69.8,288.6,147.3L288.6,147.3z"/>
	<path class="st0" d="M67.8,149.9c0-4.6,3.5-11.2,9.9-11.2c0.7,0,1.4,0.1,2.1,0.2l0.9-4.3c0.1-0.5,0.3-1.3,0.3-1.7
		c0-0.6-0.3-1.1-1.3-1.1H79V131c1.9-0.3,4.3-0.9,5.1-1.4l0.1,0.1c-0.1,1.8-0.6,3.9-0.9,5.2l-3.2,14.4c-0.3,1.5-0.4,2-0.4,2.5
		c0,0.5,0.3,0.8,0.7,0.8c0.6,0,1.5-0.6,2.1-1.1l0.1,1c0,0-1.9,2-3.9,2c-1.4,0-1.7-0.8-1.7-1.8c0-1.1,0.4-2.6,0.4-2.6h-0.1
		c0,0-2.5,4.4-6,4.4C69.5,154.5,67.8,153.1,67.8,149.9L67.8,149.9z M78.6,144.6l0.6-2.8c0.3-1.2-0.4-1.9-1.7-1.9
		c-3.3,0-6.8,4.8-6.8,9.7c0,2.2,0.8,2.9,1.8,2.9C75.2,152.5,77.8,148.3,78.6,144.6L78.6,144.6z"/>
	<path class="st0" d="M91.6,138.7c3.9,0,5.5,2.5,5.5,5.6c0,4.3-3.1,10.1-8.8,10.1c-3.9,0-5.5-2.6-5.5-5.8
		C82.7,144.3,85.8,138.7,91.6,138.7L91.6,138.7z M88.4,153.4c3.7,0,5.8-5.5,5.8-9.5c0-2.2-0.6-4-2.8-4c-3.6,0-5.7,5.2-5.7,9.5
		C85.7,151.5,86.3,153.4,88.4,153.4L88.4,153.4z"/>
	<path class="st0" d="M98.8,142.1c-0.1-0.9-0.2-1.4-1.2-1.4h-0.7v-0.9c1.7-0.4,3.9-1,4.7-1.5l0.1,0.1c-0.4,3,0,8.8,0.7,13
		c1.4-1.6,5-7.2,4.9-8.4l-0.1-0.9c-0.1-0.9-0.2-1.4-1.2-1.4h-0.7v-0.9c1.7-0.4,3.9-1,4.7-1.5l0.1,0.1c-0.4,3,0,8.8,0.7,13
		c2.2-2.6,7.9-11,4.4-11v-0.8l4.2-0.9l0.1,0.2c-2.3,6.4-7,12.2-8.2,13.8c-0.7,1-1.3,1.9-1.3,1.9l-1.1-0.4c-0.6-2.3-1.1-5.9-1.4-8.6
		c-2.3,4.2-4.1,6.3-4.7,7.2c-0.5,0.7-1.3,1.9-1.3,1.9l-1.1-0.4C99.4,150.4,98.9,143,98.8,142.1L98.8,142.1z"/>
	<path class="st0" d="M121.2,141.6c0-0.5-0.2-0.9-0.8-0.9h-1.4v-0.9c1.9-0.3,3.7-0.7,5-1.5l0.1,0.1c0,2-1,5-1,5h0.1
		c1.2-2,3.8-4.7,6.7-4.7c2,0,2.8,1.4,2.8,2.9c0,2.4-1.9,9-1.9,10.3c0,0.4,0.3,0.7,0.7,0.7c0.8,0,2.1-1.1,2.1-1.1l0.1,1
		c0,0-1.9,2-3.8,2c-1.2,0-1.8-0.8-1.8-1.7c0-1.7,1.9-8.5,1.9-10.5c0-0.7-0.3-1.5-1.5-1.5c-2.9,0-5.5,3.9-6,6.3l-0.4,1.7
		c-0.4,1.9-0.7,3.4-0.8,5.2l-2.7,0.2C118.8,151.4,121.2,142.8,121.2,141.6L121.2,141.6z"/>
	<path class="st0" d="M141,150l1.5-7c0.2-1,0.5-2.2,0.5-2.2h-2l0.1-1c0,0,1.4-0.3,2.3-1c0,0,0.8-1.2,1.2-3.2l1.7-0.5
		c0,1.1-0.1,2.1-0.5,3.9h4.7l-0.4,1.6h-4.2l-0.4,0.3l-1.7,8.4c-0.1,0.3-0.1,0.8-0.1,1.2c0,1,0.3,1.9,1.5,1.9c1.2,0,2.7-0.8,3.5-1.5
		l0.1,1c0,0-2.2,2.6-5,2.6c-2.1,0-2.9-1.4-2.9-3.2C140.9,150.9,140.9,150.4,141,150L141,150z"/>
	<path class="st0" d="M157.7,138.7c3.9,0,5.5,2.5,5.5,5.6c0,4.3-3.1,10.1-8.8,10.1c-3.9,0-5.5-2.6-5.5-5.8
		C148.9,144.3,151.9,138.7,157.7,138.7L157.7,138.7z M154.5,153.4c3.7,0,5.8-5.5,5.8-9.5c0-2.2-0.6-4-2.8-4c-3.6,0-5.7,5.2-5.7,9.5
		C151.8,151.5,152.4,153.4,154.5,153.4L154.5,153.4z"/>
	<path class="st0" d="M177.8,138.7c1.5,0,3.2,0.6,3.2,2.6c0,3.9-6.3,5.5-8.5,6l-0.4,0.4c-0.1,2.8,1,4.7,3.6,4.7
		c1.9,0,3.8-1.5,3.8-1.5l0.1,0.9c0,0-2.1,2.7-5.5,2.7c-3.2,0-4.8-2.6-4.8-5.6C169.3,144.2,173.1,138.7,177.8,138.7L177.8,138.7z
		 M178.4,141.7c0-0.9-0.2-1.8-1.3-1.8c-2,0-4.1,3.2-4.7,6.4C173.6,146,178.4,144.9,178.4,141.7L178.4,141.7z"/>
	<path class="st0" d="M180.4,149.9c0-4.6,3.5-11.2,9.5-11.2c1.5,0,2.7,0.4,3.9,0.4c0.3,0,0.6,0,1-0.1l0.1,0.1c0,0-0.5,0.8-1,3.4
		l-1.5,6.8c-0.3,1.5-0.5,2.2-0.5,2.5c0,0.5,0.3,0.8,0.7,0.8c0.6,0,1.5-0.6,2-1.1l0.1,1c-1.2,1.2-2.6,2-3.9,2c-1.3,0-1.6-0.8-1.6-1.8
		c0-1.1,0.4-2.6,0.4-2.6h-0.1c0,0-2.6,4.4-5.8,4.4C181.9,154.5,180.4,153,180.4,149.9L180.4,149.9z M190.8,144.6l0.9-4.1
		c0,0-0.9-0.7-2.1-0.7c-3.1,0-6.3,4.9-6.3,9.8c0,2.2,0.7,2.8,1.6,2.8C187.6,152.5,190.1,148.1,190.8,144.6L190.8,144.6z"/>
	<path class="st0" d="M197.9,141.6c0-0.5-0.2-0.9-0.8-0.9h-1.4v-0.9c1.9-0.3,3.7-0.7,5-1.5l0.1,0.1c0,2-1,5-1,5h0.1
		c1.3-2.3,3.3-4.7,4.8-4.7c0.9,0,1.6,0.8,1.6,1.5c0,0.9-0.7,1.6-1.6,1.6c-0.6,0-0.8-0.3-1.4-0.3c-1.5,0-3.7,3.8-4.1,5.6l-0.4,1.7
		c-0.4,1.9-0.7,3.4-0.8,5.2l-2.7,0.2C195.5,151.4,197.9,142.8,197.9,141.6L197.9,141.6z"/>
	<path class="st0" d="M205.9,150l1.5-7c0.2-1,0.5-2.2,0.5-2.2h-2l0.1-1c0,0,1.4-0.3,2.3-1c0,0,0.8-1.2,1.2-3.2l1.7-0.5
		c0,1.1-0.1,2.1-0.5,3.9h4.7l-0.4,1.6h-4.2l-0.4,0.3l-1.7,8.4c-0.1,0.3-0.1,0.8-0.1,1.2c0,1,0.3,1.9,1.5,1.9c1.2,0,2.7-0.8,3.5-1.5
		l0.1,1c0,0-2.2,2.6-5,2.6c-2.1,0-2.9-1.4-2.9-3.2C205.8,150.9,205.8,150.4,205.9,150L205.9,150z"/>
	<path class="st0" d="M214.5,149.5l3.4-15c0.1-0.4,0.3-1.1,0.3-1.5c0-0.6-0.3-1.1-1.3-1.1H216V131c1.9-0.3,4.3-0.9,5.1-1.4l0.1,0.1
		c-0.2,2-0.6,4.2-0.9,5.2l-1.2,5.2c-0.4,1.8-1,3.3-1,3.3h0.1c1.2-2,3.8-4.7,6.7-4.7c2,0,2.8,1.4,2.8,2.9c0,2.4-1.9,9-1.9,10.3
		c0,0.4,0.3,0.7,0.7,0.7c0.7,0,1.7-0.7,2.1-1.1l0.1,1c0,0-1.9,2-3.8,2c-1.2,0-1.8-0.8-1.8-1.7c0-1.7,2-8.5,2-10.5
		c0-0.7-0.3-1.5-1.5-1.5c-2.8,0-5.5,3.7-6,6.3l-0.4,1.8c-0.4,1.8-0.7,3.3-0.8,5.1l-2.7,0.2C213.8,152.8,214.2,151.2,214.5,149.5
		L214.5,149.5z"/>
	<path class="st0" d="M106,176.6v-0.4c-0.6-0.1-0.9-0.2-1.5-0.8c-0.6-0.6-1.7-1.9-2.6-3.1c0.8-0.8,1.6-1.5,2-1.9
		c0.7-0.6,1.1-0.7,1.9-0.8v-0.4h-3.2v0.4l0.4,0c0.5,0.1,0.4,0.3,0.2,0.6c-0.3,0.4-1.2,1.3-1.9,2c-0.3,0.2-0.6,0.4-0.8,0.4v-1.8
		c0-1.2,0.1-1.2,1.1-1.3v-0.4h-3.5v0.4c1,0.1,1.1,0.1,1.1,1.3v4.1c0,1.1-0.1,1.2-1.1,1.3v0.4h3.5v-0.4c-1.1-0.1-1.2-0.2-1.2-1.3
		v-1.8c0.2-0.1,0.4-0.1,0.7,0.3c0.7,0.9,2.2,2.8,2.7,3.3H106L106,176.6z M115.5,174.5c-0.2,0.6-0.4,0.9-0.6,1.2
		c-0.3,0.3-0.7,0.4-1.5,0.4c-0.7,0-1.1,0-1.2-0.2c-0.2-0.1-0.3-0.4-0.3-1V173h1.2c1,0,1.1,0.1,1.2,0.9h0.5v-2.4h-0.5
		c-0.1,0.8-0.2,0.9-1.2,0.9h-1.2v-2.3c0-0.4,0-0.5,0.5-0.5h0.9c0.9,0,1.1,0.1,1.3,0.4c0.2,0.2,0.3,0.5,0.4,1l0.4,0
		c-0.1-0.7-0.1-1.5-0.1-1.9h-5.8v0.5c1,0.1,1.1,0.1,1.1,1.3v4c0,1.2-0.1,1.2-1.2,1.3v0.4h6.3c0.1-0.3,0.3-1.5,0.4-2L115.5,174.5
		L115.5,174.5z M127.7,169.1h-3.1v0.4c0.9,0.1,1.2,0.2,1.3,0.7c0,0.4,0.1,0.9,0.1,2.1v2.1h0l-4.6-5.3h-2.2v0.4
		c1.1,0.1,1.4,0.3,1.4,1.7v2.2c0,1.1,0,1.7-0.1,2.1c-0.1,0.5-0.4,0.6-1.1,0.7v0.4h3.2v-0.4c-0.9-0.1-1.2-0.2-1.3-0.7
		c0-0.4-0.1-1-0.1-2.1v-2.6h0l4.9,5.9h0.5v-4.4c0-1.1,0-1.7,0.1-2.1c0.1-0.5,0.4-0.6,1.1-0.7V169.1L127.7,169.1z M135.7,171.1
		c-0.1-0.8-0.2-1.4-0.3-1.9c-0.3-0.1-0.9-0.3-1.6-0.3c-1.7,0-2.7,0.9-2.7,2.3c0,1.2,1.2,1.8,2,2.2l0.4,0.2c0.7,0.3,1.3,0.6,1.3,1.5
		c0,0.7-0.5,1.3-1.3,1.3c-1.2,0-1.9-1.2-2.2-2.2l-0.5,0.1c0.1,0.8,0.3,1.8,0.4,2c0.3,0.2,1.1,0.6,2.1,0.6c1.6,0,2.8-1,2.8-2.3
		c0-1.3-1-1.9-2.1-2.3l-0.3-0.1c-0.8-0.3-1.4-0.6-1.4-1.5c0-0.6,0.4-1.2,1.2-1.2c1,0,1.4,0.8,1.8,1.8L135.7,171.1L135.7,171.1z
		 M142.9,176.6v-0.4c-1.1-0.1-1.2-0.2-1.2-1.3v-4c0-1.2,0.1-1.2,1.2-1.3v-0.4h-3.6v0.4c1,0.1,1.1,0.1,1.1,1.3v4
		c0,1.2-0.1,1.3-1.1,1.3v0.4H142.9L142.9,176.6z M154.9,169.1h-3.1v0.4c0.9,0.1,1.2,0.2,1.3,0.7c0,0.4,0.1,0.9,0.1,2.1v2.1h0
		l-4.6-5.3h-2.2v0.4c1.1,0.1,1.4,0.3,1.4,1.7v2.2c0,1.1,0,1.7-0.1,2.1c-0.1,0.5-0.4,0.6-1.1,0.7v0.4h3.2v-0.4
		c-0.9-0.1-1.2-0.2-1.3-0.7c0-0.4-0.1-1-0.1-2.1v-2.6h0l4.9,5.9h0.5v-4.4c0-1.1,0-1.7,0.1-2.1c0.1-0.5,0.4-0.6,1.1-0.7V169.1
		L154.9,169.1z M165.8,172.9h-3.5v0.4c1.3,0.1,1.4,0.2,1.4,1v1.2c0,0.7-0.7,0.8-1.2,0.8c-2.1,0-3.1-1.8-3.1-3.6
		c0-2.1,1.3-3.3,2.9-3.3c1.2,0,2.1,0.5,2.4,1.9l0.5-0.1c-0.1-1-0.2-1.6-0.2-2c-0.4-0.1-1.3-0.4-2.4-0.4c-2.4,0-4.7,1.3-4.7,4.1
		c0,2.4,1.8,3.9,4.6,3.9c0.9,0,2-0.3,2.7-0.5c-0.1-0.2-0.1-0.6-0.1-1v-1c0-0.8,0-0.8,0.8-1V172.9L165.8,172.9z M176,171.1
		c-0.1-0.7-0.1-1.8-0.1-2.3h-0.3c-0.2,0.2-0.3,0.3-0.6,0.3H170c-0.3,0-0.5,0-0.6-0.3h-0.3c0,0.6-0.1,1.4-0.1,2.4h0.5
		c0.1-0.6,0.2-0.9,0.4-1.2c0.2-0.3,0.5-0.4,1.5-0.4h0.5v5.2c0,1.2-0.1,1.2-1.2,1.3v0.5h3.8v-0.5c-1.2-0.1-1.3-0.2-1.3-1.3v-5.2h0.7
		c0.7,0,1.1,0.1,1.3,0.4c0.1,0.2,0.3,0.6,0.4,1.2L176,171.1L176,171.1z M183.4,168.9c-1.8,0-4.1,1.2-4.1,4.1c0,1.9,1.5,3.8,4.1,3.8
		c2,0,4-1.4,4-4.1C187.4,170.6,185.8,168.9,183.4,168.9L183.4,168.9z M183.2,169.4c1.7,0,2.7,1.8,2.7,3.7c0,2.3-1.1,3.2-2.3,3.2
		c-1.6,0-2.7-1.5-2.7-3.7C180.8,170.5,182,169.4,183.2,169.4L183.2,169.4z M199,169.1h-3.1v0.4c0.9,0.1,1.2,0.2,1.3,0.7
		c0,0.4,0.1,0.9,0.1,2.1v2.1h0l-4.6-5.3h-2.2v0.4c1.1,0.1,1.4,0.3,1.4,1.7v2.2c0,1.1,0,1.7-0.1,2.1c-0.1,0.5-0.4,0.6-1.1,0.7v0.4
		h3.2v-0.4c-0.9-0.1-1.2-0.2-1.3-0.7c0-0.4-0.1-1-0.1-2.1v-2.6h0l4.9,5.9h0.5v-4.4c0-1.1,0-1.7,0.1-2.1c0.1-0.5,0.4-0.6,1.1-0.7
		V169.1L199,169.1z"/>
	<polygon class="st0" points="67.8,172.9 67.8,173.9 90.8,173.9 90.8,172.9 67.8,172.9 	"/>
	<polygon class="st0" points="206.1,172.9 206.1,173.9 229.1,173.9 229.1,172.9 206.1,172.9 	"/>
	<path class="st0" d="M279.9,141.1l-3-2.9l2.6-3.3l-3.1-2.7l2.4-3.4l-3.3-2.6l2.2-3.5l-3.4-2.4l2.1-3.6l-3.5-2.3l1.9-3.7l-3.6-2.1
		l1.7-3.8l-3.7-1.9l1.5-3.9l-3.8-1.8l1.4-3.9l-3.9-1.6l1.2-4l-3.9-1.4l1-4l-4-1.2l0.8-4.1l-4-1l0.6-4.1l-4.1-0.8l0.4-4.1l-4.1-0.6
		l0.2-4.2l-4.1-0.4l0-4.2l-4.2-0.3l-0.2-4.2l-4.2-0.1l-0.4-4.1l-4.2,0.1l-0.5-4.1l-4.1,0.3l-0.7-4.1l-4.1,0.5l-0.9-4.1l-4.1,0.7
		l-1.1-4l-4.1,0.9l-1.3-4l-4,1.1l-1.5-3.9l-4,1.3l-1.7-3.8l-3.9,1.5l-1.8-3.7l-3.8,1.6l-2-3.6l-3.7,1.8l-2.2-3.5l-3.7,2l-2.4-3.4
		l-3.6,2.2l-2.5-3.3l-3.4,2.3l-2.7-3.2l-3.3,2.5l-2.8-3.1l-3.2,2.6l-3-2.9l-3.1,2.8l-3.1-2.8l-3,2.9l-3.2-2.6l-2.8,3.1l-3.3-2.5
		l-2.7,3.2l-3.4-2.3l-2.5,3.3l-3.6-2.2l-2.4,3.4l-3.7-2l-2.2,3.5l-3.7-1.8l-2,3.6l-3.8-1.6l-1.8,3.7l-3.9-1.5l-1.7,3.8l-4-1.3
		L90,32.4l-4-1.1l-1.3,4l-4.1-0.9l-1.1,4l-4.1-0.7l-0.9,4.1l-4.1-0.5l-0.7,4.1l-4.1-0.3l-0.5,4.1l-4.2-0.1l-0.4,4.1l-4.2,0.1
		l-0.2,4.2L52,57.6l0,4.2l-4.1,0.4l0.2,4.2L44,67l0.4,4.1l-4.1,0.8l0.6,4.1l-4,1l0.8,4.1l-4,1.2l1,4l-3.9,1.4l1.2,4l-3.9,1.6
		l1.4,3.9l-3.8,1.8l1.5,3.9l-3.7,1.9l1.7,3.8l-3.6,2.1l1.9,3.7l-3.5,2.3l2.1,3.6l-3.4,2.4l2.2,3.5l-3.3,2.6l2.4,3.4l-3.1,2.7
		l2.6,3.3l-3,2.9l2.7,3.2l-2.9,3l2.9,3l-2.7,3.1l3,2.9l-2.6,3.3l3.1,2.7l-2.4,3.4l3.3,2.6l-2.3,3.5l3.4,2.4l-2.1,3.6l3.5,2.3
		l-1.9,3.7l3.6,2.1l-1.7,3.8l3.7,1.9l-1.6,3.9l3.8,1.8l-1.4,3.9l3.8,1.6l-1.2,4l3.9,1.4l-1,4l4,1.2l-0.8,4.1l4,1l-0.6,4.1l4.1,0.8
		l-0.4,4.1l4.1,0.6l-0.2,4.2l4.1,0.5l0,4.2l4.2,0.3l0.2,4.2l4.2,0.1l0.4,4.1l4.2-0.1l0.5,4.1l4.1-0.3l0.7,4.1l4.1-0.5l0.9,4.1
		l4.1-0.7l1.1,4l4.1-0.9l1.3,4l4-1.1l1.5,3.9l4-1.3l1.7,3.8l3.9-1.5l1.8,3.7l3.8-1.6l2,3.6l3.7-1.8l2.2,3.5l3.7-2l2.4,3.4l3.6-2.2
		l2.5,3.3l3.4-2.3l2.7,3.2l3.3-2.5l2.8,3.1l3.2-2.6l3,2.9l3.2-2.9l-3.1-3.1l-3.1,2.8l-2.8-3.1l-3.2,2.6l-2.7-3.2l-3.3,2.5l-2.5-3.3
		l-3.4,2.3l-2.3-3.4l-3.5,2.2l-2.2-3.5l-3.6,2l-2-3.6l-3.7,1.8l-1.8-3.7l-3.8,1.6l-1.7-3.8l-3.9,1.5l-1.5-3.9l-4,1.3l-1.3-3.9
		l-4,1.1l-1.1-4l-4.1,0.9l-0.9-4.1l-4.1,0.7l-0.7-4.1l-4.1,0.5l-0.5-4.1l-4.1,0.3l-0.3-4.1l-4.2,0.1l-0.2-4.1l-4.2-0.1l0-4.2
		l-4.1-0.3l0.2-4.1l-4.1-0.5l0.4-4.1l-4.1-0.6l0.6-4.1l-4.1-0.8l0.8-4.1l-4-1l1-4l-4-1.2l1.2-4l-3.9-1.4l1.4-3.9l-3.8-1.6l1.5-3.9
		l-3.8-1.8l1.7-3.8l-3.7-1.9l1.9-3.7l-3.6-2.1l2.1-3.6l-3.5-2.3l2.2-3.5l-3.4-2.4l2.4-3.4l-3.2-2.6l2.6-3.3l-3.1-2.7l2.7-3.1l-3-2.9
		l2.9-3l-2.9-3l3-2.9l-2.7-3.1l3.1-2.7l-2.6-3.3l3.2-2.6l-2.4-3.4l3.4-2.4l-2.2-3.5l3.5-2.3l-2.1-3.6l3.6-2.1l-1.9-3.7l3.7-1.9
		l-1.7-3.8l3.8-1.8l-1.5-3.9l3.8-1.6l-1.4-3.9l3.9-1.4l-1.2-4l4-1.2l-1-4l4-1l-0.8-4.1l4.1-0.8l-0.6-4.1l4.1-0.6l-0.4-4.1l4.1-0.4
		l-0.2-4.1l4.1-0.3l0-4.2l4.2-0.1l0.2-4.1l4.2,0.1l0.4-4.1l4.1,0.3l0.5-4.1l4.1,0.5l0.7-4.1l4.1,0.7l0.9-4l4.1,0.9l1.1-4l4,1.1
		l1.3-3.9l4,1.3l1.5-3.9l3.9,1.5l1.7-3.8l3.8,1.6l1.8-3.7l3.7,1.8l2-3.6l3.6,2l2.2-3.5l3.5,2.2l2.4-3.4l3.4,2.3l2.5-3.3l3.3,2.5
		l2.7-3.2l3.2,2.6l2.8-3.1l3.1,2.8l2.9-2.9l2.9,2.9l3.1-2.8l2.8,3.1l3.2-2.6l2.7,3.2l3.3-2.5l2.5,3.3l3.4-2.3l2.4,3.4l3.5-2.2
		l2.2,3.5l3.6-2l2,3.6l3.7-1.8l1.8,3.7l3.8-1.6l1.7,3.8l3.9-1.5l1.5,3.9l4-1.3l1.3,3.9l4-1.1l1.1,4l4.1-0.9l0.9,4l4.1-0.7l0.7,4.1
		l4.1-0.5l0.5,4.1l4.1-0.3l0.4,4.1l4.2-0.1l0.2,4.1l4.2,0.1l0,4.2l4.1,0.3l-0.2,4.1l4.1,0.4l-0.4,4.1l4.1,0.6l-0.6,4.1l4.1,0.8
		l-0.8,4.1l4,1l-1,4l4,1.2l-1.2,4l3.9,1.4l-1.4,3.9l3.8,1.6l-1.5,3.9l3.8,1.8l-1.7,3.8l3.7,1.9l-1.9,3.7l3.6,2.1l-2.1,3.6l3.5,2.3
		l-2.2,3.5l3.4,2.4l-2.4,3.4l3.2,2.6l-2.6,3.3l3.1,2.7l-2.7,3.1l3,2.9l-2.9,3l2.9,3l-3,2.9l2.7,3.1l-3.1,2.7l2.6,3.3l-3.2,2.6
		l2.4,3.4l-3.4,2.4l2.2,3.5l-3.5,2.3l2.1,3.6l-3.6,2.1l1.9,3.7l-3.7,1.9l1.7,3.8l-3.8,1.8l1.5,3.9l-3.8,1.6l1.4,3.9l-3.9,1.4l1.2,4
		l-4,1.2l1,4l-4,1l0.8,4.1l-4.1,0.8l0.6,4.1l-4.1,0.6l0.4,4.1l-4.1,0.5l0.2,4.1l-4.1,0.3l0,4.2l-4.2,0.1l-0.2,4.1l-4.2-0.1l-0.3,4.1
		l-4.1-0.3l-0.5,4.1l-4.1-0.5l-0.7,4.1l-4.1-0.7l-0.9,4l-4.1-0.9l-1.1,4l-4-1.1l-1.3,3.9l-4-1.3l-1.5,3.9l-3.9-1.5l-1.7,3.8
		l-3.8-1.6l-1.8,3.7l-3.7-1.8l-2,3.6l-3.6-2l-2.2,3.5l-3.5-2.2l-2.3,3.4l-3.4-2.3l-2.5,3.3l-3.3-2.5l-2.7,3.2l-3.2-2.6l-2.8,3.1
		l-3.1-2.8l-3.1,3.1l3.2,2.9l3-2.9l3.2,2.6l2.8-3.1l3.3,2.5l2.7-3.2l3.5,2.3l2.5-3.3l3.6,2.2l2.4-3.4l3.7,2l2.2-3.5l3.7,1.8l2-3.6
		l3.8,1.6l1.8-3.7l3.9,1.5l1.7-3.8l4,1.3l1.5-3.9l4,1.1l1.3-4l4.1,0.9l1.1-4l4.1,0.7l0.9-4.1l4.1,0.5l0.7-4.1l4.1,0.3l0.5-4.1
		l4.2,0.1l0.3-4.1l4.2-0.1l0.2-4.2l4.2-0.3l0-4.2l4.1-0.5l-0.2-4.2l4.1-0.6l-0.4-4.1l4.1-0.8l-0.6-4.1l4-1l-0.8-4.1l4-1.2l-1-4
		l3.9-1.4l-1.2-4l3.8-1.6l-1.4-3.9l3.8-1.8l-1.6-3.9l3.7-1.9l-1.7-3.8l3.6-2.1l-1.9-3.7l3.5-2.3l-2.1-3.6l3.4-2.4l-2.3-3.5l3.3-2.6
		l-2.4-3.4l3.1-2.7l-2.6-3.3l3-2.9l-2.7-3.1l2.9-3l-2.9-3L279.9,141.1L279.9,141.1z M153.8,276.1l-2.3,2.3l-2.4-2.2l2.3-2.3
		L153.8,276.1L153.8,276.1z M159.8,275.7l-2.2,2.4l-2.5-2.1l2.2-2.4L159.8,275.7L159.8,275.7z M165.8,275l-2.1,2.5l-2.6-2l2.1-2.5
		L165.8,275L165.8,275z M171.8,274l-2,2.6l-2.7-1.8l2-2.6L171.8,274L171.8,274z M177.7,272.8l-1.9,2.7l-2.8-1.7l1.9-2.7L177.7,272.8
		L177.7,272.8z M183.6,271.3l-1.7,2.8l-2.9-1.6l1.7-2.8L183.6,271.3L183.6,271.3z M189.3,269.5l-1.6,2.9l-3-1.4l1.6-2.9L189.3,269.5
		L189.3,269.5z M195,267.4l-1.5,2.9l-3-1.3l1.5-2.9L195,267.4L195,267.4z M200.6,265.1l-1.3,3l-3.1-1.1l1.3-3L200.6,265.1
		L200.6,265.1z M206,262.5l-1.2,3.1l-3.1-1l1.2-3.1L206,262.5L206,262.5z M211.3,259.7l-1,3.1l-3.2-0.9l1-3.1L211.3,259.7
		L211.3,259.7z M216.5,256.6l-0.9,3.2l-3.2-0.7l0.9-3.2L216.5,256.6L216.5,256.6z M221.6,253.3l-0.7,3.2l-3.2-0.6l0.7-3.2
		L221.6,253.3L221.6,253.3z M226.4,249.7l-0.6,3.2l-3.3-0.4l0.6-3.2L226.4,249.7L226.4,249.7z M231.1,245.9l-0.4,3.3l-3.3-0.2
		l0.4-3.3L231.1,245.9L231.1,245.9z M235.7,241.9l-0.3,3.3l-3.3-0.1l0.3-3.3L235.7,241.9L235.7,241.9z M240,237.7l-0.1,3.3l-3.3,0.1
		l0.1-3.3L240,237.7L240,237.7z M244.2,236.6l-3.3,0.2l0-3.3l3.3-0.2L244.2,236.6L244.2,236.6z M248.2,232l-3.3,0.4l-0.2-3.3
		l3.3-0.4L248.2,232L248.2,232z M142.7,276.1l2.4-2.2l2.3,2.3l-2.4,2.2L142.7,276.1L142.7,276.1z M136.7,275.7l2.5-2.1l2.2,2.4
		l-2.5,2.1L136.7,275.7L136.7,275.7z M130.7,275l2.6-2l2.1,2.5l-2.6,2L130.7,275L130.7,275z M124.7,274l2.7-1.8l2,2.6l-2.7,1.8
		L124.7,274L124.7,274z M118.8,272.8l2.8-1.7l1.9,2.7l-2.8,1.7L118.8,272.8L118.8,272.8z M113,271.3l2.9-1.6l1.7,2.8l-2.9,1.6
		L113,271.3L113,271.3z M107.2,269.5l3-1.4l1.6,2.9l-3,1.4L107.2,269.5L107.2,269.5z M101.6,267.4l3-1.3l1.5,2.9l-3,1.3L101.6,267.4
		L101.6,267.4z M96,265.1l3.1-1.1l1.3,3l-3.1,1.1L96,265.1L96,265.1z M90.5,262.5l3.1-1l1.2,3.1l-3.1,1L90.5,262.5L90.5,262.5z
		 M85.2,259.7l3.2-0.9l1,3.1l-3.2,0.9L85.2,259.7L85.2,259.7z M80,256.6l3.2-0.7l0.9,3.2l-3.2,0.7L80,256.6L80,256.6z M75,253.3
		l3.2-0.6l0.7,3.2l-3.2,0.6L75,253.3L75,253.3z M70.1,249.7l3.3-0.4l0.6,3.2l-3.3,0.4L70.1,249.7L70.1,249.7z M65.4,245.9l3.3-0.2
		l0.4,3.3l-3.3,0.2L65.4,245.9L65.4,245.9z M60.9,241.9l3.3-0.1l0.3,3.3l-3.3,0.1L60.9,241.9L60.9,241.9z M56.6,237.7l3.3,0.1
		l0.1,3.3l-3.3-0.1L56.6,237.7L56.6,237.7z M52.4,236.6l0-3.3l3.3,0.2l0,3.3L52.4,236.6L52.4,236.6z M48.3,232l0.2-3.3l3.3,0.4
		l-0.2,3.3L48.3,232L48.3,232z M44.5,227.2l0.3-3.3l3.2,0.5l-0.3,3.3L44.5,227.2L44.5,227.2z M41.3,219l3.2,0.7L44,223l-3.2-0.7
		L41.3,219L41.3,219z M38.1,214l3.2,0.8l-0.6,3.2l-3.2-0.8L38.1,214L38.1,214z M35,208.7l3.1,1l-0.8,3.2l-3.1-1L35,208.7L35,208.7z
		 M32.3,203.4l3.1,1.1l-0.9,3.1l-3.1-1.1L32.3,203.4L32.3,203.4z M29.8,197.9l3,1.2l-1.1,3.1l-3-1.2L29.8,197.9L29.8,197.9z
		 M27.5,192.3l3,1.4l-1.2,3l-3-1.4L27.5,192.3L27.5,192.3z M25.6,186.6l2.9,1.5l-1.4,3l-2.9-1.5L25.6,186.6L25.6,186.6z M23.9,180.8
		l2.8,1.7l-1.5,2.9l-2.8-1.7L23.9,180.8L23.9,180.8z M22.4,174.9l2.7,1.8l-1.6,2.8l-2.7-1.8L22.4,174.9L22.4,174.9z M21.3,169
		l2.7,1.9l-1.8,2.8l-2.7-1.9L21.3,169L21.3,169z M20.4,163l2.6,2l-1.9,2.7l-2.6-2L20.4,163L20.4,163z M19.8,157l2.5,2.2l-2,2.6
		l-2.5-2.2L19.8,157L19.8,157z M19.5,151l2.4,2.3l-2.1,2.5l-2.4-2.3L19.5,151L19.5,151z M19.5,144.9l2.3,2.4l-2.3,2.4l-2.3-2.4
		L19.5,144.9L19.5,144.9z M19.8,138.9l2.1,2.5l-2.4,2.3l-2.1-2.5L19.8,138.9L19.8,138.9z M20.3,132.9l2,2.6l-2.5,2.2l-2-2.6
		L20.3,132.9L20.3,132.9z M21.1,126.9l1.9,2.7l-2.6,2l-1.9-2.7L21.1,126.9L21.1,126.9z M22.2,121l1.8,2.8l-2.7,1.9l-1.8-2.8
		L22.2,121L22.2,121z M25.2,117.9l-2.7,1.8l-1.6-2.8l2.7-1.8L25.2,117.9L25.2,117.9z M26.7,112.2l-2.8,1.7l-1.5-2.9l2.8-1.7
		L26.7,112.2L26.7,112.2z M28.5,106.6l-2.9,1.5l-1.4-3l2.9-1.5L28.5,106.6L28.5,106.6z M30.6,101l-3,1.4l-1.2-3l3-1.4L30.6,101
		L30.6,101z M32.9,95.5l-3,1.2l-1.1-3.1l3-1.2L32.9,95.5L32.9,95.5z M35.4,90.2l-3.1,1.1l-0.9-3.1l3.1-1.1L35.4,90.2L35.4,90.2z
		 M38.3,85l-3.1,1l-0.8-3.2l3.1-1L38.3,85L38.3,85z M41.3,79.9l-3.2,0.8l-0.6-3.2l3.2-0.8L41.3,79.9L41.3,79.9z M44.6,75l-3.2,0.7
		l-0.5-3.2l3.2-0.7L44.6,75L44.6,75z M48.1,70.2l-3.2,0.5l-0.3-3.3l3.2-0.5L48.1,70.2L48.1,70.2z M51.9,65.6l-3.3,0.4l-0.2-3.3
		l3.3-0.4L51.9,65.6L51.9,65.6z M55.8,61.1l-3.3,0.2l0-3.3l3.3-0.2L55.8,61.1L55.8,61.1z M60.1,53.6l-0.1,3.3L56.7,57l0.1-3.3
		L60.1,53.6L60.1,53.6z M64.6,49.6l-0.3,3.3L61,52.8l0.3-3.3L64.6,49.6L64.6,49.6z M69.2,45.8L68.8,49l-3.3-0.3l0.4-3.3L69.2,45.8
		L69.2,45.8z M74.1,42.2l-0.6,3.2L70.2,45l0.6-3.2L74.1,42.2L74.1,42.2z M79.1,38.8L78.4,42l-3.2-0.6l0.7-3.2L79.1,38.8L79.1,38.8z
		 M84.2,35.7l-0.9,3.2l-3.2-0.7L81,35L84.2,35.7L84.2,35.7z M89.5,32.8l-1,3.1L85.3,35l1-3.1L89.5,32.8L89.5,32.8z M95,30.2
		l-1.2,3.1l-3.1-1l1.2-3.1L95,30.2L95,30.2z M100.5,27.8l-1.3,3l-3.1-1.2l1.3-3L100.5,27.8L100.5,27.8z M106.2,25.7l-1.5,2.9l-3-1.3
		l1.5-2.9L106.2,25.7L106.2,25.7z M111.9,23.8l-1.6,2.9l-3-1.4l1.6-2.9L111.9,23.8L111.9,23.8z M117.8,22.3L116,25l-2.9-1.6l1.7-2.8
		L117.8,22.3L117.8,22.3z M123.6,21l-1.9,2.7L119,22l1.9-2.7L123.6,21L123.6,21z M129.6,20l-2,2.6l-2.7-1.8l2-2.6L129.6,20L129.6,20
		z M135.6,19.2l-2.1,2.5l-2.6-2l2.1-2.5L135.6,19.2L135.6,19.2z M141.6,18.8l-2.2,2.4l-2.5-2.1l2.2-2.4L141.6,18.8L141.6,18.8z
		 M147.6,18.6l-2.3,2.3l-2.4-2.2l2.3-2.3L147.6,18.6L147.6,18.6z M153.7,18.7l-2.4,2.2l-2.3-2.3l2.4-2.2L153.7,18.7L153.7,18.7z
		 M159.7,19.1l-2.5,2.1l-2.2-2.4l2.5-2.1L159.7,19.1L159.7,19.1z M165.7,19.8l-2.6,2l-2.1-2.5l2.6-2L165.7,19.8L165.7,19.8z
		 M171.7,20.7l-2.7,1.8l-2-2.6l2.7-1.8L171.7,20.7L171.7,20.7z M177.6,22l-2.8,1.7l-1.9-2.7l2.8-1.7L177.6,22L177.6,22z M183.4,23.5
		l-2.9,1.6l-1.7-2.8l2.9-1.6L183.4,23.5L183.4,23.5z M189.2,25.3l-3,1.4l-1.6-2.9l3-1.4L189.2,25.3L189.2,25.3z M194.8,27.3l-3,1.3
		l-1.5-2.9l3-1.3L194.8,27.3L194.8,27.3z M200.4,29.6l-3.1,1.2l-1.3-3l3.1-1.2L200.4,29.6L200.4,29.6z M205.9,32.2l-3.1,1l-1.2-3.1
		l3.1-1L205.9,32.2L205.9,32.2z M211.2,35l-3.2,0.9l-1-3.1l3.2-0.9L211.2,35L211.2,35z M216.4,38.1l-3.2,0.7l-0.9-3.2l3.2-0.7
		L216.4,38.1L216.4,38.1z M221.4,41.4l-3.2,0.6l-0.7-3.2l3.2-0.6L221.4,41.4L221.4,41.4z M226.3,45l-3.3,0.4l-0.6-3.2l3.3-0.4
		L226.3,45L226.3,45z M231,48.8l-3.3,0.3l-0.4-3.3l3.3-0.3L231,48.8L231,48.8z M235.6,52.8l-3.3,0.1l-0.3-3.3l3.3-0.1L235.6,52.8
		L235.6,52.8z M239.9,57l-3.3-0.1l-0.1-3.3l3.3,0L239.9,57L239.9,57z M244.1,58.1l0,3.3l-3.3-0.2l0-3.3L244.1,58.1L244.1,58.1z
		 M248.1,62.7l-0.2,3.3l-3.3-0.4l0.2-3.3L248.1,62.7L248.1,62.7z M252.1,227.2l-3.2,0.5l-0.3-3.3l3.2-0.5L252.1,227.2L252.1,227.2z
		 M255.7,222.3l-3.2,0.7l-0.5-3.2l3.2-0.7L255.7,222.3L255.7,222.3z M259.1,217.2L256,218l-0.6-3.2l3.2-0.8L259.1,217.2L259.1,217.2
		z M262.3,211.9l-3.1,1l-0.8-3.2l3.1-1L262.3,211.9L262.3,211.9z M265.2,206.5l-3.1,1.1l-0.9-3.1l3.1-1.1L265.2,206.5L265.2,206.5z
		 M267.8,201l-3,1.2l-1.1-3.1l3-1.2L267.8,201L267.8,201z M270.2,195.3l-3,1.4l-1.2-3l3-1.4L270.2,195.3L270.2,195.3z M272.3,189.5
		l-2.9,1.5l-1.4-3l2.9-1.5L272.3,189.5L272.3,189.5z M274.2,183.7l-2.8,1.7l-1.5-2.9l2.8-1.7L274.2,183.7L274.2,183.7z M275.8,177.7
		l-2.7,1.8l-1.6-2.8l2.7-1.8L275.8,177.7L275.8,177.7z M275.3,169l1.8,2.8l-2.7,1.9l-1.8-2.8L275.3,169L275.3,169z M276.1,163
		l1.9,2.7l-2.6,2l-1.9-2.7L276.1,163L276.1,163z M276.7,157l2,2.6l-2.5,2.2l-2-2.6L276.7,157L276.7,157z M277,151l2.1,2.5l-2.4,2.3
		l-2.1-2.5L277,151L277,151z M277,144.9l2.3,2.4l-2.3,2.4l-2.3-2.4L277,144.9L277,144.9z M252,67.4l-0.3,3.3l-3.2-0.5l0.3-3.3
		L252,67.4L252,67.4z M255.6,72.4l-0.5,3.2l-3.2-0.7l0.5-3.2L255.6,72.4L255.6,72.4z M258.4,80.7l-3.2-0.8l0.6-3.2l3.2,0.8
		L258.4,80.7L258.4,80.7z M261.4,85.9l-3.1-1l0.8-3.2l3.1,1L261.4,85.9L261.4,85.9z M264.2,91.3l-3.1-1.1L262,87l3.1,1.1L264.2,91.3
		L264.2,91.3z M266.7,96.8l-3-1.2l1.1-3.1l3,1.2L266.7,96.8L266.7,96.8z M269,102.4l-3-1.4l1.2-3l3,1.4L269,102.4L269,102.4z
		 M270.9,108.1l-2.9-1.5l1.4-3l2.9,1.5L270.9,108.1L270.9,108.1z M272.6,113.9l-2.8-1.7l1.5-2.9l2.8,1.7L272.6,113.9L272.6,113.9z
		 M274.1,119.7l-2.7-1.8l1.6-2.8l2.7,1.8L274.1,119.7L274.1,119.7z M275.2,125.7l-2.7-1.9l1.8-2.8l2.7,1.9L275.2,125.7L275.2,125.7z
		 M276.1,131.6l-2.6-2l1.9-2.7l2.6,2L276.1,131.6L276.1,131.6z M276.7,137.6l-2.5-2.2l2-2.6l2.5,2.2L276.7,137.6L276.7,137.6z
		 M279.2,141.2l-2.1,2.5l-2.4-2.3l2.1-2.5L279.2,141.2L279.2,141.2z"/>
</g>
</svg>
