<?xml version="1.0" encoding="utf-8"?>
<!-- Generator: Adobe Illustrator 21.0.0, SVG Export Plug-In . SVG Version: 6.00 Build 0)  -->
<svg version="1.1" id="Layer_1" xmlns="http://www.w3.org/2000/svg" xmlns:xlink="http://www.w3.org/1999/xlink" x="0px" y="0px"
	 viewBox="0 0 33 33" style="enable-background:new 0 0 33 33;" xml:space="preserve">
<style type="text/css">
	.st0{fill:#292929;}
</style>
<title>gitHub</title>
<path class="st0" d="M16.6,0.4C7.4,0.3,0,7.7,0,16.9C0,24,4.6,30.4,11.3,32.6c0.8,0.2,1.1-0.4,1.1-0.8c0-0.4,0-1.4,0-2.8
	c-4.6,1-5.6-2.2-5.6-2.2c-0.3-1-1-1.9-1.8-2.4c-1.5-1,0.1-1,0.1-1c1.1,0.1,2,0.8,2.5,1.7c0.9,1.7,3.1,2.3,4.8,1.4c0,0,0,0,0,0
	c0.1-0.8,0.4-1.6,1-2.2C9.9,23.8,6,22.4,6,16c0-1.6,0.6-3.2,1.7-4.4c-0.5-1.4-0.4-3,0.2-4.4c0,0,1.4-0.4,4.6,1.7
	c2.7-0.7,5.6-0.7,8.3,0c3.2-2.1,4.6-1.7,4.6-1.7c0.6,1.4,0.7,3,0.1,4.4c1.1,1.2,1.7,2.8,1.7,4.4c0,6.4-3.9,7.8-7.6,8.1
	c0.8,0.8,1.2,1.9,1.1,3c0,2.2,0,4,0,4.5c0,0.5,0.3,1,1.1,0.8c8.6-3,13.2-12.4,10.3-21C29.8,4.9,23.6,0.4,16.6,0.4z"/>
</svg>
