<svg id="Layer_1" data-name="Layer 1" xmlns="http://www.w3.org/2000/svg" viewBox="0 0 300.46 549.84"><defs><style>.cls-1{fill:#d16b59;}.cls-2{fill:#7c5565;}.cls-3{fill:#ffa88e;}.cls-4{fill:#ad373e;}.cls-5{fill:#c16a66;}.cls-6{fill:#ff7265;}.cls-7{fill:#fe857f;}.cls-8{fill:#e68c79;}.cls-9{fill:#ffa38f;}.cls-10{fill:#ff6d5b;}.cls-11{fill:#8a3941;}.cls-12{fill:#d46a60;}.cls-13{fill:#ff887d;}.cls-14{fill:#a24d5d;}.cls-15{fill:#f08f78;}.cls-16{fill:#c74d44;}.cls-17{fill:#ff9383;}.cls-18{fill:#ff8973;}.cls-19{fill:#120809;}.cls-20{fill:#fb827c;}.cls-21{fill:#fbab97;}.cls-22{fill:#be4349;}.cls-23{fill:#ffaa97;}.cls-24{fill:#8b2c1f;}.cls-25{fill:#962e28;}.cls-26{fill:#952c21;}.cls-27{fill:#97211b;}.cls-28{fill:#140707;}.cls-29{fill:#981a11;}.cls-30{fill:#190c0d;}.cls-31{fill:#981d0b;}.cls-32{fill:#ce3f41;}.cls-33{fill:#fe6d68;}.cls-34{fill:#db574c;}.cls-35{fill:#8d333a;}.cls-36{fill:#af434d;}.cls-37{fill:#9d3733;}.cls-38{fill:#80262c;}.cls-39{fill:#872b33;}.cls-40{fill:#942c24;}.cls-41{fill:#b9424a;}.cls-42{fill:#ab404c;}.cls-43{fill:#9f3f36;}.cls-44{fill:#ff6b60;}.cls-45{fill:#95343a;}.cls-46{fill:#ff6c69;}.cls-47{fill:#ff545a;}.cls-48{fill:#dd5051;}.cls-49{fill:#f66;}.cls-50{fill:#ff5d57;}.cls-51{fill:#ff9781;}.cls-52{fill:#fb806e;}.cls-53{fill:#c85b54;}.cls-54{fill:#c5353e;}.cls-55{fill:#87363d;}.cls-56{fill:#aa3f3f;}.cls-57{fill:#de645b;}.cls-58{fill:#ff6158;}.cls-59{fill:#c54947;}.cls-60{fill:#9a4546;}.cls-61{fill:#7d3238;}.cls-62{fill:#a0564b;}.cls-63{fill:#9e363d;}.cls-64{fill:#c14a41;}.cls-65{fill:#fa9a84;}.cls-66{fill:#c07160;}.cls-67{fill:#7d3337;}.cls-68{fill:#2b1919;}.cls-69{fill:#ff7e6e;}.cls-70{fill:#fd6d62;}.cls-71{fill:#79231f;}.cls-72{fill:#e46864;}.cls-73{fill:#ad3f34;}.cls-74{fill:#371b1b;}.cls-75{fill:#c55449;}.cls-76{fill:#ff6b5a;}.cls-77{fill:#d65257;}.cls-78{fill:#fcb6a4;}.cls-79{fill:#ef7a63;}.cls-80{fill:#ff9d93;}.cls-81{fill:#e78366;}.cls-82{fill:#ff796d;}.cls-83{fill:#922b36;}.cls-84{fill:#7f020f;}.cls-85{fill:#84030d;}.cls-86{fill:#8d0c1c;}.cls-87{fill:#a20d13;}.cls-88{fill:#84010d;}.cls-89{fill:#970013;}.cls-90{fill:#951310;}.cls-91{fill:#8a070f;}.cls-92{fill:#9d0005;}.cls-93{fill:#950205;}.cls-94{fill:#8b1c1d;}.cls-95{fill:#f2493b;}.cls-96{fill:#7b0512;}.cls-97{fill:#7b242e;}.cls-98{fill:#d04d55;}.cls-99{fill:#e78973;}.cls-100{fill:#f55b57;}.cls-101{fill:#a30114;}.cls-102{fill:#7f1f20;}.cls-103{fill:#60151d;}.cls-104{fill:#761d1f;}.cls-105{fill:#5e1c1c;}.cls-106{fill:#810c10;}.cls-107{fill:#7b0206;}.cls-108{fill:#790005;}.cls-109{fill:#860003;}.cls-110{fill:#760514;}.cls-111{fill:#6d0305;}.cls-112{fill:#883934;}.cls-113{fill:#7f0007;}.cls-114{fill:#b5383f;}.cls-115{fill:#ab323b;}.cls-116{fill:#931218;}.cls-117{fill:#ac5446;}.cls-118{fill:#8a383a;}.cls-119{fill:#690103;}.cls-120{fill:#8f090c;}.cls-121{fill:#c94049;}.cls-122{fill:#973130;}.cls-123{fill:#ff8474;}.cls-124{fill:#78020f;}.cls-125{fill:#71060a;}.cls-126{fill:#6b020b;}.cls-127{fill:#7d000e;}.cls-128{fill:#790002;}.cls-129{fill:#ff9685;}.cls-130{fill:#ab4b42;}.cls-131{fill:#863b3c;}.cls-132{fill:#ff8c72;}.cls-133{fill:#a7413c;}.cls-134{fill:#912922;}.cls-135{fill:#8b302a;}.cls-136{fill:#fe574f;}.cls-137{fill:#632229;}.cls-138{fill:#2f1815;}.cls-139,.cls-355{fill:none;}.cls-139{stroke:#2f95ad;stroke-miterlimit:10;stroke-width:2px;}.cls-140{fill:#9a2920;}.cls-141{fill:#5c2328;}.cls-142{fill:#ac4a5a;}.cls-143{fill:#783438;}.cls-144{fill:#902a1f;}.cls-145{fill:#9e2e27;}.cls-146{fill:#ff6057;}.cls-147{fill:#a14037;}.cls-148{fill:#e26360;}.cls-149{fill:#ff5953;}.cls-150{fill:#fe5b4e;}.cls-151{fill:#ff826e;}.cls-152{fill:#9b1121;}.cls-153{fill:#ce464a;}.cls-154{fill:#c02935;}.cls-155{fill:#ff8376;}.cls-156{fill:#3c120f;}.cls-157{fill:#ab3a2f;}.cls-158{fill:#cc4e4d;}.cls-159{fill:#c62334;}.cls-160{fill:#9e283c;}.cls-161{fill:#be0e30;}.cls-162{fill:#b21128;}.cls-163{fill:#c92130;}.cls-164{fill:#a40c19;}.cls-165{fill:#ac1b2d;}.cls-166{fill:#ff464e;}.cls-167{fill:#d1363d;}.cls-168{fill:#c12238;}.cls-169{fill:#b01c2a;}.cls-170{fill:#d53840;}.cls-171{fill:#ba6b5a;}.cls-172{fill:#e8857e;}.cls-173{fill:#703e34;}.cls-174{fill:#b96353;}.cls-175{fill:#b35f59;}.cls-176{fill:#8a4841;}.cls-177{fill:#b44a4e;}.cls-178{fill:#dd6a56;}.cls-179{fill:#ff8778;}.cls-180{fill:#d27264;}.cls-181{fill:#e68271;}.cls-182{fill:#ae3d4c;}.cls-183{fill:#c64048;}.cls-184{fill:#c43c46;}.cls-185{fill:#e85954;}.cls-186{fill:#ae3f41;}.cls-187{fill:#f26c5f;}.cls-188{fill:#cf4b4d;}.cls-189{fill:#b1271c;}.cls-190{fill:#b61d11;}.cls-191{fill:#96332d;}.cls-192{fill:#784a4a;}.cls-193{fill:#92353d;}.cls-194{fill:#99000a;}.cls-195{fill:#9c0e10;}.cls-196{fill:#601e26;}.cls-197{fill:#863127;}.cls-198{fill:#a93b46;}.cls-199{fill:#a14b49;}.cls-200{fill:#853435;}.cls-201{fill:#5b2d2f;}.cls-202{fill:#5d1d22;}.cls-203{fill:#80535c;}.cls-204{fill:#160606;}.cls-205{fill:#79292e;}.cls-206{fill:#8b4044;}.cls-207{fill:#742326;}.cls-208{fill:#74252a;}.cls-209{fill:#892523;}.cls-210{fill:#9c1817;}.cls-211{fill:#4b1016;}.cls-212{fill:#d45a4f;}.cls-213{fill:#4d141c;}.cls-214{fill:#7b181c;}.cls-215{fill:#852a20;}.cls-216{fill:#c43538;}.cls-217{fill:#922725;}.cls-218{fill:#890a13;}.cls-219{fill:#e7433e;}.cls-220{fill:#ae3240;}.cls-221{fill:#771a1e;}.cls-222{fill:#8b0210;}.cls-223{fill:#6f090a;}.cls-224{fill:#7e0007;}.cls-225{fill:#680703;}.cls-226{fill:#821113;}.cls-227{fill:#1a0b0a;}.cls-228{fill:#700800;}.cls-229{fill:#760708;}.cls-230{fill:#73060b;}.cls-231{fill:#590904;}.cls-232{fill:#8c373e;}.cls-233{fill:#902c31;}.cls-234{fill:#c74d50;}.cls-235{fill:#6f282a;}.cls-236{fill:#be3e3e;}.cls-237{fill:#eb4b49;}.cls-238{fill:#a0303c;}.cls-239{fill:#f65350;}.cls-240{fill:#e15853;}.cls-241{fill:#9d2d32;}.cls-242{fill:#a73339;}.cls-243{fill:#e94945;}.cls-244{fill:#c13e43;}.cls-245{fill:#fa5443;}.cls-246{fill:#d63937;}.cls-247{fill:#fd6d5f;}.cls-248{fill:#d15a49;}.cls-249{fill:#c03937;}.cls-250{fill:#c15050;}.cls-251{fill:#ff8f7f;}.cls-252{fill:#dc4434;}.cls-253{fill:#87000a;}.cls-254{fill:#760d18;}.cls-255{fill:#c62d29;}.cls-256{fill:#f65146;}.cls-257{fill:#84151a;}.cls-258{fill:#ff4b51;}.cls-259{fill:#ff6b5f;}.cls-260{fill:#ff7373;}.cls-261{fill:#dd4145;}.cls-262{fill:#ac162c;}.cls-263{fill:#bc232b;}.cls-264{fill:#b80013;}.cls-265{fill:#8f0a1b;}.cls-266{fill:#b71e2b;}.cls-267{fill:#e75b4d;}.cls-268{fill:#c96459;}.cls-269{fill:#ff7a74;}.cls-270{fill:#ef5e54;}.cls-271{fill:#ff5348;}.cls-272{fill:#921f21;}.cls-273{fill:#8e2329;}.cls-274{fill:#691d24;}.cls-275{fill:#8f1520;}.cls-276{fill:#7e222b;}.cls-277{fill:#871c23;}.cls-278{fill:#130508;}.cls-279{fill:#ab2f37;}.cls-280{fill:#82242e;}.cls-281{fill:#670f1a;}.cls-282{fill:#fe796b;}.cls-283{fill:#ff8273;}.cls-284{fill:#fe7971;}.cls-285{fill:#841e21;}.cls-286{fill:#994a53;}.cls-287{fill:#7e3334;}.cls-288{fill:#b0433d;}.cls-289{fill:#ba5568;}.cls-290{fill:#901411;}.cls-291{fill:#9b1c21;}.cls-292{fill:#c43437;}.cls-293{fill:#942223;}.cls-294{fill:#a22635;}.cls-295{fill:#932729;}.cls-296{fill:#941325;}.cls-297{fill:#c03d49;}.cls-298{fill:#b33d50;}.cls-299{fill:#72101b;}.cls-300{fill:#9c1221;}.cls-301{fill:#190909;}.cls-302{fill:#ab1d29;}.cls-303{fill:#541017;}.cls-304{fill:#d73340;}.cls-305{fill:#b71e2e;}.cls-306{fill:#c53943;}.cls-307{fill:#ac2745;}.cls-308{fill:#a63b49;}.cls-309{fill:#bf2b3b;}.cls-310{fill:#b50325;}.cls-311{fill:#93090f;}.cls-312{fill:#aa1e20;}.cls-313{fill:#8d000d;}.cls-314{fill:#7c000a;}.cls-315{fill:#893530;}.cls-316{fill:#87091e;}.cls-317{fill:#77000f;}.cls-318{fill:#a31119;}.cls-319{fill:#7f161c;}.cls-320{fill:#a1122b;}.cls-321{fill:#aa1226;}.cls-322{fill:#fa5055;}.cls-323{fill:#9c1528;}.cls-324{fill:#fe6466;}.cls-325{fill:#860b12;}.cls-326{fill:#810515;}.cls-327{fill:#88211b;}.cls-328{fill:#590f1a;}.cls-329{fill:#951528;}.cls-330{fill:#3a181e;}.cls-331{fill:#932923;}.cls-332{fill:#411d1d;}.cls-333{fill:#9d4640;}.cls-334{fill:#9c4445;}.cls-335{fill:#a3252c;}.cls-336{fill:#ac363d;}.cls-337{fill:#a33238;}.cls-338{fill:#b74145;}.cls-339{fill:#ff9e95;}.cls-340{fill:#8c352d;}.cls-341{fill:#a97155;}.cls-342{fill:#933f35;}.cls-343{fill:#c57464;}.cls-344{fill:#e09e88;}.cls-345{fill:#904430;}.cls-346{fill:#fb6f67;}.cls-347{fill:#ff5049;}.cls-348{fill:#cf2d39;}.cls-349{fill:#be2d3a;}.cls-350{fill:#a5151d;}.cls-351{fill:#931f15;}.cls-352{fill:#c3323f;}.cls-353{fill:#7c0d1f;}.cls-354{fill:#090607;}</style></defs><title>heart-sml</title><g id="low-poly"><polygon class="cls-1" points="213.34 120.27 213.44 120.18 213.25 120.07 213.32 120.18 213.34 120.27"/><polygon class="cls-2" points="285.55 189.29 285.34 189.24 285.43 189.29 285.55 189.29"/><polygon class="cls-3" points="138.22 81.07 138.19 81.06 138.21 81.12 138.22 81.07"/><polygon class="cls-4" points="213.39 120.46 213.44 120.18 213.34 120.27 213.39 120.46"/><polygon class="cls-5" points="138.19 81.06 138.22 81.07 138.31 80.6 135.21 68.64 135.21 69.11 138.19 81.06"/><polygon class="cls-6" points="114.27 150.18 114.22 150.11 114.17 150.23 114.27 150.18"/><polygon class="cls-7" points="174.26 222.34 207.31 180.27 153.23 195.3 174.26 222.34"/><polygon class="cls-8" points="96.23 108.17 96.27 108.17 96.27 108.16 96.23 108.17"/><polygon class="cls-9" points="216.33 195.3 207.31 180.27 174.26 222.34 216.33 195.3"/><polygon class="cls-10" points="174.26 222.34 207.31 258.26 207.31 240.37 174.26 222.34"/><polygon class="cls-11" points="261.4 201.31 258.39 195.3 255.39 186.28 252.38 213.32 261.4 201.31"/><polygon class="cls-12" points="267.41 192.29 279.43 192.29 263.65 185.53 264.4 186.28 267.41 192.29"/><polygon class="cls-13" points="255.39 186.28 207.31 180.27 237.36 195.3 255.39 186.28"/><polygon class="cls-14" points="252.38 213.32 255.39 186.28 237.36 195.3 252.38 213.32"/><polygon class="cls-15" points="216.45 195.3 237.36 195.3 207.31 180.27 216.33 195.3 216.45 195.3"/><polygon class="cls-16" points="114.2 171.3 114.27 171.38 114.29 171.26 114.2 171.3"/><polygon class="cls-17" points="114.17 170.92 114.17 150.23 114.22 150.11 96.27 120.18 114.17 170.92"/><polygon class="cls-18" points="114.17 171.26 114.17 170.92 96.27 120.18 96.15 120.18 93.14 141.22 93.14 180.27 114.2 171.3 114.17 171.26"/><polygon class="cls-6" points="114.22 150.11 120.18 135.21 132.2 111.17 96.27 108.17 96.15 120.18 96.27 120.18 114.22 150.11"/><polygon class="cls-19" points="93.14 180.27 90.14 174.26 93.14 195.3 93.14 189.29 93.14 180.27"/><polygon class="cls-20" points="108.16 198.3 123.19 183.28 114.27 171.38 108.16 198.3"/><polygon class="cls-19" points="93.14 180.27 93.14 189.29 93.14 195.3 108.11 201.24 99.15 189.29 93.14 180.27"/><polygon class="cls-21" points="114.29 171.26 138.21 177.27 114.17 150.23 114.17 170.92 114.29 171.26"/><polygon class="cls-22" points="267.41 198.3 267.41 201.31 279.38 192.41 279.43 192.29 267.41 192.29 267.41 198.3"/><polygon class="cls-23" points="114.17 170.92 114.17 171.26 114.2 171.3 114.29 171.26 114.17 170.92"/><polygon class="cls-23" points="114.27 171.38 123.19 183.28 138.21 177.27 114.29 171.26 114.27 171.38"/><polygon class="cls-24" points="246.37 234.36 261.4 219.33 255.39 216.33 246.37 234.36"/><polygon class="cls-25" points="222.5 276.58 231.35 285.43 237.36 291.44 267.41 270.41 222.46 276.42 222.5 276.58"/><polygon class="cls-26" points="243.37 294.45 249.38 297.45 267.41 270.41 237.36 291.44 243.37 294.45"/><polygon class="cls-27" points="222.46 276.42 267.41 270.41 243.37 249.38 222.46 276.42"/><polygon class="cls-28" points="213.32 252.38 213.32 237.36 213.32 234.36 216.33 225.34 219.22 219.56 213.32 225.34 207.31 240.37 207.31 258.26 207.44 258.39 207.31 258.26 207.31 258.39 216.33 273.42 222.34 276.42 216.33 264.4 213.32 252.38"/><polygon class="cls-29" points="261.4 246.37 246.37 234.36 249.38 240.37 243.37 249.38 267.41 270.41 249.5 240.37 267.41 270.41 276.42 240.37 261.4 246.37"/><polygon class="cls-30" points="231.35 294.45 237.36 291.44 231.35 285.43 222.5 276.58 225.34 288.44 231.35 294.45"/><polygon class="cls-31" points="276.42 258.39 276.42 249.38 276.42 240.37 267.41 270.41 276.45 264.46 276.42 264.4 276.42 258.39"/><polygon class="cls-32" points="225.34 288.44 222.5 276.58 222.34 276.42 225.34 294.45 225.34 309.47 225.34 324.49 231.35 294.45 225.34 288.44"/><polygon class="cls-33" points="255.39 330.5 249.38 297.45 243.37 303.46 255.39 330.5"/><polygon class="cls-34" points="213.32 225.34 216.4 195.81 216.33 195.3 174.26 222.34 207.31 240.37 213.32 225.34"/><polygon class="cls-32" points="237.36 291.44 243.37 303.46 249.38 297.45 243.37 294.45 237.36 291.44"/><polygon class="cls-35" points="261.4 219.33 257.79 216.93 255.39 216.33 261.4 219.33"/><polygon class="cls-36" points="264.4 201.31 261.4 201.31 279.43 213.32 276.42 207.31 276.42 201.31 279.38 192.41 267.41 201.31 264.4 201.31"/><polygon class="cls-37" points="255.51 216.31 255.51 216.33 255.51 216.31 255.39 216.33 257.79 216.93 256.65 216.17 255.51 216.31"/><polygon class="cls-38" points="276.42 249.38 276.42 258.39 276.42 264.4 276.45 264.46 276.54 264.4 279.43 258.39 276.42 240.37 276.42 249.38"/><polygon class="cls-39" points="257.79 216.93 279.43 222.34 279.43 219.33 279.43 213.32 256.65 216.17 257.79 216.93"/><polygon class="cls-35" points="255.79 215.6 256.65 216.17 279.43 213.32 261.4 201.31 255.79 215.6"/><polygon class="cls-40" points="222.46 276.42 243.37 249.38 237.36 252.38 213.32 252.38 216.33 264.4 222.34 276.42 222.5 276.58 222.46 276.42"/><polygon class="cls-41" points="276.42 240.37 294.45 234.36 267.64 228.37 267.58 228.53 273.42 234.36 276.42 240.37"/><polygon class="cls-37" points="261.4 246.37 267.58 228.53 267.41 228.35 261.4 219.33 246.37 234.36 261.4 246.37"/><polygon class="cls-42" points="279.43 258.39 294.45 234.36 276.42 240.37 279.43 258.39"/><polygon class="cls-43" points="276.42 240.37 273.42 234.36 267.58 228.53 261.4 246.37 276.42 240.37"/><polygon class="cls-44" points="237.36 291.44 231.35 294.45 255.39 330.5 243.37 303.46 237.36 291.44"/><polygon class="cls-8" points="138.62 81.19 138.57 81.12 138.56 81.17 138.62 81.19"/><polygon class="cls-3" points="138.56 81.17 138.57 81.12 138.51 81.16 138.56 81.17"/><polygon class="cls-45" points="108.28 75.11 126.19 75.11 123.21 60.19 108.16 75.11 108.28 75.11"/><polygon class="cls-46" points="123.21 60.19 123.19 60.09 63.39 87.05 108.15 75.15 108.16 75.11 123.21 60.19"/><polygon class="cls-47" points="138.57 81.12 138.44 81.15 138.51 81.16 138.57 81.12"/><polygon class="cls-47" points="138.79 81.23 138.57 81.12 138.62 81.19 138.79 81.23"/><polygon class="cls-48" points="174.26 60.09 159.24 60.09 165.25 69.11 174.26 60.09"/><polygon class="cls-49" points="159.24 60.09 165.25 87.13 165.25 69.11 159.24 60.09"/><polygon class="cls-50" points="174.26 81.12 171.26 75.11 165.25 69.11 165.25 87.13 174.26 84.13 174.26 81.12"/><polygon class="cls-51" points="150.23 96.15 177.23 99.13 138.79 81.23 138.62 81.19 150.23 96.15"/><polygon class="cls-52" points="177.26 99.14 171.26 90.14 165.37 87.13 171.26 90.14 174.26 84.13 165.25 87.13 138.79 81.23 177.23 99.13 177.26 99.14"/><polygon class="cls-8" points="96.27 108.16 96.27 108.17 132.2 111.17 138.56 81.17 138.51 81.16 96.15 108.16 96.23 108.17 96.27 108.16"/><polygon class="cls-53" points="114.17 87.13 123.19 84.13 108.2 75.14 108.15 75.15 99.15 96.15 108.16 90.14 114.17 87.13"/><polygon class="cls-54" points="63.39 87.05 63.22 87.13 63.39 87.05 63.1 87.13 99.15 96.15 108.15 75.15 63.39 87.05"/><polygon class="cls-55" points="138.44 81.15 123.19 84.13 114.17 87.13 108.16 90.14 99.15 96.15 96.15 108.16 138.51 81.16 138.44 81.15"/><polygon class="cls-56" points="108.15 75.15 108.2 75.14 108.16 75.11 108.15 75.15"/><polygon class="cls-57" points="123.19 60.09 126.19 45.07 63.1 87.13 63.39 87.05 123.19 60.09"/><polygon class="cls-58" points="171.26 75.11 174.26 66.1 174.26 60.09 165.25 69.11 171.26 75.11"/><polygon class="cls-59" points="108.16 75.11 108.2 75.14 108.28 75.11 108.16 75.11"/><polygon class="cls-60" points="108.28 75.11 108.2 75.14 123.19 84.13 126.19 75.11 108.28 75.11"/><polygon class="cls-61" points="123.19 84.13 129.2 78.12 132.2 78.12 126.19 75.11 123.19 84.13"/><polygon class="cls-62" points="123.19 84.13 138.44 81.15 138.33 81.12 138.22 81.07 138.21 81.12 138.19 81.06 132.2 78.12 129.2 78.12 123.19 84.13"/><polygon class="cls-63" points="123.21 60.19 123.31 60.09 123.21 60.19 126.19 75.11 132.2 78.12 132.2 75.11 132.2 63.1 132.2 57.09 129.2 48.07 126.19 45.07 123.19 60.09 123.21 60.19"/><polygon class="cls-64" points="156.24 174.26 159.21 168.32 138.21 177.27 159.23 180.26 156.24 174.26"/><polygon class="cls-65" points="165.25 183.28 159.24 189.29 153.23 195.3 207.31 180.27 162.25 183.28 165.25 183.28"/><polygon class="cls-66" points="207.31 180.27 162.25 174.26 162.25 183.28 207.31 180.27"/><polygon class="cls-67" points="174.26 81.12 174.26 66.1 171.26 75.11 174.26 81.12"/><polygon class="cls-68" points="156.24 174.26 159.23 180.26 159.36 180.27 159.24 180.45 159.24 186.28 159.24 189.29 162.25 183.28 162.25 174.26 159.36 168.26 159.21 168.32 156.24 174.26"/><polygon class="cls-69" points="159.21 168.32 159.36 168.26 159.24 168.18 159.24 168.26 159.21 168.32"/><polygon class="cls-16" points="159.24 180.27 159.23 180.26 138.21 177.27 147.22 198.3 159.24 180.45 159.24 180.27"/><polygon class="cls-70" points="123.19 183.28 147.22 198.3 138.21 177.27 123.19 183.28"/><polygon class="cls-71" points="159.24 186.28 159.24 180.45 147.22 198.3 153.23 195.3 159.24 189.29 159.24 186.28"/><polygon class="cls-72" points="108.16 198.3 114.27 171.38 114.2 171.3 93.14 180.27 99.15 189.29 108.11 201.24 108.28 201.31 147.22 198.3 123.19 183.28 108.16 198.3"/><polygon class="cls-73" points="159.24 180.45 159.36 180.27 159.23 180.26 159.24 180.27 159.24 180.45"/><polygon class="cls-69" points="159.21 168.32 159.24 168.26 159.24 168.18 150.23 162.25 138.21 177.27 159.21 168.32"/><polygon class="cls-74" points="162.25 183.28 159.24 189.29 165.25 183.28 162.25 183.28"/><polygon class="cls-75" points="174.26 84.13 171.26 90.14 177.26 99.14 177.27 99.14 174.26 84.13"/><polygon class="cls-76" points="177.23 99.13 177.27 99.15 177.26 99.14 177.23 99.13"/><polygon class="cls-76" points="177.26 99.14 177.27 99.15 177.27 99.14 177.26 99.14"/><polygon class="cls-76" points="177.27 99.15 177.27 99.14 177.27 99.14 177.27 99.15"/><polygon class="cls-77" points="174.26 84.13 177.27 99.14 177.27 99.14 183.28 75.11 174.41 66.12 174.26 66.1 174.26 81.12 174.26 84.13"/><polygon class="cls-78" points="114.27 150.18 114.17 150.23 138.21 177.27 150.23 162.25 114.29 150.23 114.27 150.18"/><polygon class="cls-79" points="120.18 135.21 114.22 150.11 114.27 150.18 156.24 129.2 132.2 111.17 120.18 135.21"/><polygon class="cls-80" points="114.29 150.23 150.23 162.25 156.24 129.2 114.27 150.18 114.29 150.23"/><polygon class="cls-3" points="138.62 81.19 138.56 81.17 132.2 111.17 150.23 96.15 138.62 81.19"/><polygon class="cls-81" points="156.24 129.2 177.27 99.15 132.2 111.17 156.24 129.2"/><polygon class="cls-82" points="150.23 96.15 132.2 111.17 177.27 99.15 177.23 99.13 150.23 96.15"/><polygon class="cls-83" points="99.15 39.06 99.15 33.05 84.13 33.05 96.05 44.97 96.17 45.02 99.15 39.06"/><polygon class="cls-84" points="96.16 432.4 96.15 432.66 96.24 432.6 96.16 432.4"/><polygon class="cls-84" points="96.24 432.6 117.18 420.64 111.17 411.63 105.16 399.61 99.15 387.59 96.16 432.4 96.24 432.6"/><polygon class="cls-85" points="57.09 372.57 54.08 381.58 99.15 387.59 57.09 372.57"/><polygon class="cls-86" points="84.13 402.61 54.08 381.58 60.09 387.59 63.1 390.59 72.11 402.61 81.12 414.63 90.14 426.65 96.15 432.66 96.16 432.4 84.13 402.61"/><polygon class="cls-87" points="99.15 387.59 54.08 381.58 84.13 402.61 99.15 387.59"/><polygon class="cls-88" points="96.16 432.4 99.15 387.59 84.13 402.61 96.16 432.4"/><polygon class="cls-89" points="93.14 369.56 87.16 351.6 57.09 372.57 99.15 387.59 93.14 369.56"/><polygon class="cls-90" points="81.24 339.52 80.79 339.01 81.12 339.52 81.24 339.52"/><polygon class="cls-91" points="80.79 339.01 54.08 309.47 54.08 315.48 51.08 339.52 81.12 339.52 80.79 339.01"/><polygon class="cls-92" points="87.13 351.53 81.17 339.61 57.09 372.57 87.16 351.6 87.13 351.53"/><polygon class="cls-93" points="81.12 339.52 51.08 339.52 54.08 354.54 57.09 369.56 57.09 372.57 81.17 339.61 81.12 339.52"/><polygon class="cls-94" points="51.2 279.43 51.34 279.16 51.12 279.38 51.2 279.43"/><polygon class="cls-95" points="96.15 108.16 96.13 108.19 96.23 108.17 96.15 108.16"/><polygon class="cls-96" points="99.27 438.67 117.18 420.64 96.24 432.6 96.27 432.66 96.24 432.6 96.15 432.66 99.15 438.67 105.16 444.68 117.18 420.64 99.27 438.67"/><polygon class="cls-97" points="96.05 44.97 96.15 45.07 96.17 45.02 96.05 44.97"/><polygon class="cls-98" points="114.17 45.07 126.19 45.07 117.18 27.04 102.16 45.07 108.16 45.07 114.17 45.07"/><polygon class="cls-99" points="216.45 195.3 216.33 195.3 216.4 195.81 216.45 195.3"/><polygon class="cls-100" points="45.19 180.27 57.09 180.27 63.1 180.27 87.13 159.24 45.19 180.27"/><polygon class="cls-101" points="81.17 339.61 81.24 339.52 81.12 339.52 81.17 339.61"/><polygon class="cls-102" points="12.02 267.41 15.11 308.97 24.04 255.39 12.02 267.41"/><polygon class="cls-103" points="114.17 219.33 114.17 216.33 114.17 213.32 108.16 225.34 114.17 219.33"/><polygon class="cls-104" points="0.12 255.39 12.02 267.41 24.04 255.39 0.12 255.39"/><polygon class="cls-105" points="21.03 309.47 24.04 306.47 15.14 309.47 21.03 309.47"/><polygon class="cls-106" points="30.05 369.56 36.05 378.57 45.07 381.58 54.08 381.58 30.2 369.58 30.05 369.56"/><polygon class="cls-107" points="255.38 507.83 255.39 507.77 237.36 480.73 231.35 519.79 255.38 507.83"/><polygon class="cls-108" points="255.42 507.82 255.39 507.77 255.38 507.83 255.42 507.82"/><polygon class="cls-109" points="231.35 519.79 237.36 480.73 177.27 528.8 231.35 519.79"/><polygon class="cls-110" points="147.22 504.77 165.25 519.79 177.27 528.8 129.2 489.74 147.22 504.77"/><polygon class="cls-111" points="36.05 384.58 33.05 384.58 36.05 396.6 39.06 405.62 51.08 387.59 36.05 384.58"/><polygon class="cls-112" points="276.42 300.46 279.43 297.45 282.43 291.44 270.41 300.46 276.42 300.46"/><polygon class="cls-113" points="39.06 405.62 45.07 417.63 51.08 429.65 51.08 387.59 39.06 405.62"/><polygon class="cls-114" points="156.24 36.05 150.23 36.05 147.22 42.06 144.22 51.08 177.27 42.06 156.24 36.05"/><polygon class="cls-115" points="84.94 5.99 75.97 3.35 72.11 0 69.11 9.01 63.1 30.05 95.49 8.62 84.94 5.99"/><polygon class="cls-116" points="75.11 330.5 72.11 324.49 69.11 318.48 66.1 312.48 57.21 306.47 57.09 306.47 54.08 309.47 80.79 339.01 75.11 330.5"/><polygon class="cls-117" points="210.32 150.23 213.32 147.22 216.33 141.22 216.33 132.2 213.39 120.46 207.31 153.23 210.32 150.23"/><polygon class="cls-118" points="198.3 60.09 201.31 57.09 201.31 54.08 195.3 51.08 195.3 69.11 198.3 60.09"/><polygon class="cls-119" points="96.15 438.67 69.11 453.69 105.16 444.68 96.15 438.67"/><polygon class="cls-120" points="30.2 369.58 54.08 381.58 57.09 372.57 30.2 369.58"/><polygon class="cls-121" points="144.36 51.09 159.24 60.09 177.27 54.08 144.36 51.09"/><polygon class="cls-122" points="66.1 309.47 63.1 306.47 57.21 306.47 66.1 312.48 66.1 309.47"/><polygon class="cls-123" points="48.07 318.48 51.08 303.46 54.08 294.45 51.08 300.46 42.06 312.48 36.05 324.49 33.05 333.51 48.07 339.52 48.07 327.5 48.07 318.48"/><polygon class="cls-124" points="69.11 423.64 54.08 438.67 96.15 438.67 69.11 423.64"/><polygon class="cls-125" points="54.08 438.67 60.09 444.68 69.11 453.69 96.15 438.67 54.08 438.67"/><polygon class="cls-126" points="51.2 429.65 69.11 423.64 57.09 390.59 51.08 429.65 54.08 438.67 69.11 423.64 51.2 429.65"/><polygon class="cls-127" points="96.15 438.67 81.12 420.64 69.11 405.62 57.09 390.59 69.11 423.64 96.15 438.67"/><polygon class="cls-128" points="51.08 387.59 51.08 429.65 57.09 390.59 51.08 387.59"/><polygon class="cls-129" points="114.17 45.07 108.16 45.07 102.16 45.07 96.15 48.07 63.1 87.13 126.19 45.07 114.17 45.07"/><polygon class="cls-130" points="231.35 231.35 237.45 213.41 237.42 213.38 219.45 219.33 231.35 231.35"/><polygon class="cls-131" points="237.42 213.38 237.36 213.32 231.35 213.32 225.34 216.33 219.53 219.24 219.45 219.33 237.42 213.38"/><polygon class="cls-132" points="219.45 219.28 216.4 195.81 213.32 225.34 219.22 219.56 219.33 219.33 219.45 219.28"/><polygon class="cls-133" points="240.37 216.33 237.45 213.41 231.35 231.35 240.37 216.33"/><polygon class="cls-134" points="219.53 219.24 219.45 219.28 219.45 219.33 219.53 219.24"/><polygon class="cls-135" points="237.47 213.37 237.42 213.38 237.45 213.41 237.47 213.37"/><polygon class="cls-136" points="189.29 279.43 216.33 273.42 207.31 258.39 189.29 279.43"/><polygon class="cls-137" points="261.4 201.31 252.38 213.32 255.79 215.6 261.4 201.31"/><polygon class="cls-138" points="256.65 216.17 255.79 215.6 255.51 216.31 256.65 216.17"/><polygon class="cls-139" points="237.48 213.32 237.47 213.37 237.6 213.32 237.48 213.32"/><polygon class="cls-134" points="219.45 219.28 219.33 219.33 219.22 219.56 219.45 219.33 219.45 219.28"/><polygon class="cls-140" points="240.37 231.35 246.37 234.36 255.39 216.33 231.47 231.35 240.37 231.35"/><polygon class="cls-141" points="237.6 213.32 252.38 213.32 237.36 207.31 237.6 213.32"/><polygon class="cls-138" points="237.47 213.37 237.45 213.41 240.37 216.33 243.37 216.33 249.38 216.33 255.39 216.33 255.51 216.31 255.79 215.6 252.38 213.32 237.6 213.32 237.47 213.37"/><polygon class="cls-142" points="252.38 213.32 237.36 195.3 237.36 207.31 252.38 213.32"/><polygon class="cls-99" points="219.45 219.28 219.53 219.24 237.36 195.3 216.45 195.3 216.4 195.81 219.45 219.28"/><polygon class="cls-143" points="225.34 216.33 231.35 213.32 237.36 213.32 237.42 213.38 237.47 213.37 237.48 213.32 237.6 213.32 237.36 207.31 237.36 195.3 219.53 219.24 225.34 216.33"/><polygon class="cls-135" points="243.37 216.33 240.37 216.33 231.35 231.35 231.47 231.35 255.39 216.33 249.38 216.33 243.37 216.33"/><polygon class="cls-144" points="231.35 231.35 213.32 234.36 225.34 240.37 231.35 231.35"/><polygon class="cls-145" points="213.32 234.36 213.32 237.36 213.32 252.38 225.34 240.37 213.32 234.36"/><polygon class="cls-146" points="198.3 315.48 216.33 273.42 189.29 279.43 198.3 315.48"/><polygon class="cls-134" points="219.45 219.33 219.22 219.56 216.33 225.34 213.32 234.36 231.35 231.35 219.45 219.33"/><polygon class="cls-147" points="228.35 246.37 225.34 240.37 213.32 252.38 237.36 252.38 231.35 249.38 228.35 246.37"/><polygon class="cls-148" points="177.29 99.14 177.27 99.14 177.27 99.15 177.29 99.14"/><polygon class="cls-149" points="267.41 333.51 276.42 333.51 279.49 327.6 279.43 327.51 255.39 330.5 267.41 333.51"/><polygon class="cls-150" points="279.43 327.51 279.43 327.5 267.41 309.47 264.4 303.46 255.39 330.5 279.43 327.51"/><polygon class="cls-151" points="279.55 327.5 279.43 327.51 279.49 327.6 279.55 327.5"/><polygon class="cls-152" points="135.21 393.6 147.22 387.59 162.25 378.57 129.2 363.55 135.21 393.6"/><polygon class="cls-153" points="264.4 303.46 249.38 297.45 255.39 330.5 264.4 303.46"/><polygon class="cls-154" points="231.35 330.5 249.38 342.52 273.42 354.54 288.44 363.55 255.39 330.5 225.34 324.49 231.35 330.5"/><polygon class="cls-148" points="177.43 99.26 177.39 99.15 177.27 99.15 177.43 99.26"/><polygon class="cls-155" points="177.39 99.15 177.29 99.14 177.27 99.15 177.39 99.15"/><polygon class="cls-156" points="264.52 297.51 264.4 297.45 261.4 297.45 255.39 297.45 249.38 297.45 264.4 303.46 264.52 297.51"/><polygon class="cls-157" points="279.43 270.41 276.45 264.46 267.41 270.41 279.43 270.41"/><polygon class="cls-158" points="177.27 54.08 159.24 60.09 174.26 60.09 177.27 54.08"/><polygon class="cls-159" points="180.27 348.53 195.3 333.51 207.31 321.49 219.31 312.5 198.3 315.48 180.27 348.53"/><polygon class="cls-160" points="90.26 348.53 129.2 363.55 134.2 348.53 90.26 348.53"/><polygon class="cls-161" points="129.2 363.55 180.25 348.57 180.27 348.53 134.2 348.53 129.2 363.55"/><polygon class="cls-162" points="134.2 348.53 180.27 348.53 141.22 327.5 134.2 348.53"/><polygon class="cls-163" points="219.31 312.5 219.33 312.48 216.33 273.42 198.3 315.48 219.31 312.5"/><polygon class="cls-164" points="162.25 378.57 180.25 348.57 129.2 363.55 162.25 378.57"/><polygon class="cls-165" points="141.22 327.5 180.27 348.53 144.32 294.61 141.22 327.5"/><polygon class="cls-166" points="198.3 315.48 189.29 279.43 165.25 291.44 183.28 306.47 198.3 315.48"/><polygon class="cls-167" points="144.34 294.45 144.34 294.49 198.3 315.48 183.28 306.47 165.25 291.44 144.22 294.45 144.34 294.49 144.34 294.45"/><polygon class="cls-168" points="144.32 294.61 144.22 294.45 90.34 348.45 141.22 327.5 144.32 294.61"/><polygon class="cls-169" points="141.22 327.5 90.34 348.45 90.26 348.53 134.2 348.53 141.22 327.5"/><polygon class="cls-170" points="90.14 162.25 87.13 159.24 63.1 180.27 90.14 174.26 90.14 162.25"/><polygon class="cls-171" points="162.34 156.14 168.26 150.23 156.24 129.2 162.34 156.14"/><polygon class="cls-172" points="177.43 99.26 177.27 99.15 168.26 150.23 192.29 138.21 177.43 99.26"/><polygon class="cls-173" points="168.26 150.23 171.26 153.23 183.28 156.24 189.29 156.24 195.3 156.24 207.31 153.23 192.29 138.21 168.26 150.23"/><polygon class="cls-174" points="150.23 162.25 159.24 168.18 159.24 162.25 162.25 156.24 162.34 156.14 156.24 129.2 150.23 162.25"/><polygon class="cls-1" points="192.29 138.21 207.31 153.23 213.39 120.46 213.34 120.27 192.29 138.21"/><polygon class="cls-175" points="162.25 174.26 189.29 165.25 159.36 168.26 162.25 174.26"/><polygon class="cls-176" points="159.36 168.26 189.29 165.25 159.24 162.25 159.24 168.18 159.36 168.26"/><polygon class="cls-177" points="263.65 185.53 279.43 192.29 282.43 189.29 285.43 189.29 285.34 189.24 262.25 184.13 263.65 185.53"/><polygon class="cls-178" points="255.39 186.28 189.29 165.25 207.31 180.27 255.39 186.28"/><polygon class="cls-179" points="177.43 99.26 192.29 138.21 213.34 120.27 213.32 120.18 213.25 120.07 186.28 105.16 177.43 99.26"/><polygon class="cls-180" points="207.31 180.27 189.29 165.25 162.25 174.26 207.31 180.27"/><polygon class="cls-181" points="258.39 183.28 261.4 183.28 262.25 184.13 285.34 189.24 279.43 186.28 258.39 180.27 225.34 174.26 189.29 165.25 255.39 186.28 258.39 183.28"/><polygon class="cls-182" points="195.3 69.11 195.3 51.08 177.27 54.08 195.3 69.11"/><polygon class="cls-148" points="177.43 99.26 186.28 105.16 213.25 120.07 198.3 99.15 177.39 99.15 177.43 99.26"/><polygon class="cls-183" points="174.26 60.09 174.26 66.1 174.41 66.12 174.38 66.1 174.41 66.12 195.3 69.11 174.38 60.09 195.3 69.11 177.27 54.08 174.26 60.09"/><polygon class="cls-184" points="144.34 51.08 144.36 51.09 177.27 54.08 177.27 48.07 177.27 42.06 144.22 51.08 144.36 51.09 144.34 51.08"/><polygon class="cls-185" points="159.24 60.09 144.36 51.09 144.22 51.08 141.22 66.1 138.31 80.6 138.45 81.12 159.24 60.09"/><polygon class="cls-186" points="195.3 51.08 180.27 48.07 177.27 48.07 177.27 54.08 195.3 51.08"/><polygon class="cls-155" points="177.39 99.15 198.3 99.15 195.3 90.14 177.29 99.14 177.39 99.15"/><polygon class="cls-76" points="177.27 99.14 177.29 99.14 195.3 90.14 183.28 75.11 177.27 99.14"/><polygon class="cls-187" points="195.3 90.14 195.3 84.13 195.3 78.12 195.3 69.17 183.28 75.11 195.3 90.14"/><polygon class="cls-188" points="183.28 75.11 195.3 69.17 195.3 69.11 174.41 66.12 183.28 75.11"/><polygon class="cls-2" points="279.43 192.29 279.38 192.41 279.55 192.29 279.38 192.41 276.42 201.31 276.42 207.31 279.43 213.32 279.43 219.33 279.43 222.34 282.43 225.34 285.43 219.33 285.43 207.31 288.44 195.3 285.43 189.29 282.43 189.29 279.43 192.29"/><polygon class="cls-189" points="267.41 270.41 282.43 291.44 282.43 288.44 282.43 285.43 279.43 279.43 279.43 276.42 279.54 276.3 279.43 270.41 267.41 270.41"/><polygon class="cls-190" points="249.38 297.45 282.43 291.44 267.41 270.41 249.38 297.45"/><polygon class="cls-191" points="255.39 297.45 261.4 297.45 264.4 297.45 264.52 297.51 264.52 297.45 282.43 291.44 249.38 297.45 255.39 297.45"/><polygon class="cls-192" points="279.54 276.3 282.43 273.42 279.43 270.41 279.54 276.3"/><polygon class="cls-47" points="138.33 81.12 138.44 81.15 138.57 81.12 138.79 81.23 165.25 87.13 159.24 60.09 138.45 81.12 138.31 80.6 138.22 81.07 138.33 81.12"/><polygon class="cls-193" points="294.45 255.39 276.54 264.4 276.45 264.46 279.43 270.41 282.43 273.42 294.45 255.57 294.45 255.39"/><polygon class="cls-194" points="294.45 381.76 288.44 390.59 282.43 402.61 261.4 426.65 300.44 396.71 300.46 396.6 294.45 387.59 294.45 381.76"/><polygon class="cls-195" points="276.42 333.51 267.41 333.51 255.39 330.5 288.44 363.55 294.45 375.57 297.45 384.58 300.46 396.6 297.45 363.55 294.45 351.53 279.49 327.6 276.42 333.51"/><polygon class="cls-196" points="264.4 303.46 267.41 309.47 279.43 327.5 279.43 327.51 279.55 327.5 279.49 327.6 294.45 351.53 288.44 336.51 282.43 324.49 273.42 309.47 270.41 303.46 270.41 300.46 264.52 297.51 264.4 303.46"/><polygon class="cls-197" points="264.52 297.51 270.41 300.46 282.43 291.44 264.52 297.45 264.52 297.51"/><polygon class="cls-198" points="294.45 255.57 282.43 273.42 294.45 273.42 294.57 273.3 294.45 258.39 294.45 255.57"/><polygon class="cls-199" points="297.45 231.35 282.43 228.35 294.45 234.36 297.45 231.35"/><polygon class="cls-200" points="267.64 228.37 267.65 228.35 267.64 228.37 294.45 234.36 282.43 228.35 276.42 225.34 267.53 228.35 267.64 228.37"/><polygon class="cls-201" points="294.45 255.57 294.57 255.39 294.45 255.57 294.45 258.39 294.57 273.3 297.45 270.41 297.45 267.41 300.46 255.39 297.45 252.38 294.45 255.39 294.45 255.57"/><polygon class="cls-202" points="257.79 216.93 261.4 219.33 276.42 225.34 282.43 225.34 279.43 222.34 257.79 216.93"/><polygon class="cls-203" points="294.45 240.37 294.57 249.26 297.45 246.37 300.46 240.37 300.46 234.36 297.45 231.35 294.45 234.36 294.45 240.37"/><polygon class="cls-204" points="267.41 228.35 267.58 228.53 267.64 228.37 267.53 228.35 276.42 225.34 261.4 219.33 267.41 228.35"/><polygon class="cls-205" points="279.43 258.39 276.54 264.4 294.45 255.39 291.44 249.38 285.43 252.38 279.43 258.39"/><polygon class="cls-206" points="297.45 252.38 291.44 249.38 294.45 255.39 297.45 252.38"/><polygon class="cls-207" points="279.43 258.39 285.43 252.38 291.44 249.38 294.45 234.36 279.43 258.39"/><polygon class="cls-208" points="294.45 234.36 291.44 249.38 294.45 249.38 294.57 249.26 294.45 240.37 294.45 234.36"/><polygon class="cls-209" points="9.01 225.34 3 240.37 24.04 255.39 9.01 225.34"/><polygon class="cls-210" points="54.08 363.55 51.08 351.53 48.07 339.52 30.05 348.53 57.09 372.57 54.08 363.55"/><polygon class="cls-211" points="33.05 333.51 36.05 324.49 42.06 312.48 51.08 300.46 54.08 294.45 51.08 303.46 48.07 318.48 48.07 327.5 48.07 339.52 51.08 351.53 54.08 363.55 57.09 372.57 57.09 369.56 54.08 354.54 51.08 339.52 54.08 315.48 54.08 309.47 57.09 306.47 57.21 306.47 63.1 306.47 66.1 309.47 66.1 312.48 69.11 318.48 72.11 324.49 75.11 330.5 80.79 339.01 81.24 339.52 81.17 339.61 87.13 351.53 87.16 351.6 87.25 351.53 87.16 351.6 93.14 369.56 99.15 387.59 105.16 399.61 111.17 411.63 117.18 420.64 117.18 417.63 114.17 411.63 108.16 399.61 102.16 384.58 93.14 360.55 90.14 348.53 84.13 336.51 75.11 321.49 69.11 306.47 69.11 303.46 60.09 303.46 57.09 303.46 60.09 294.45 66.1 282.43 75.11 270.41 90.14 258.39 102.16 246.37 108.16 243.37 114.29 240.37 132.2 267.41 138.21 231.35 114.41 240.37 138.21 231.35 132.2 213.32 126.19 222.34 117.18 237.36 114.17 240.37 111.17 231.35 90.14 252.38 81.12 258.39 72.11 267.41 57.09 282.43 48.07 294.45 36.05 309.47 30.05 321.49 27.16 333.51 30.05 321.49 36.05 309.47 48.07 294.45 57.09 282.43 72.11 267.41 81.12 258.39 90.14 252.38 111.17 231.35 114.17 225.34 114.29 219.33 114.17 225.34 111.17 231.35 114.17 240.37 117.18 237.36 126.19 222.34 132.2 213.32 114.17 213.32 114.17 216.33 114.17 219.33 108.16 225.34 105.18 231.3 105.28 231.35 105.18 231.3 105.16 231.35 102.16 234.36 96.15 237.36 93.14 240.37 87.13 243.37 87.11 243.39 87.25 243.37 87.11 243.39 84.13 246.37 81.12 249.38 78.12 252.38 69.11 261.4 63.1 267.41 57.09 273.42 51.34 279.16 51.2 279.43 51.12 279.38 51.08 279.43 45.07 288.44 39.06 297.45 30.05 303.46 24.04 306.47 21.03 309.47 15.14 309.47 15.02 309.47 6.13 300.46 15.02 309.47 15.07 309.2 0 255.39 0 264.4 3 288.44 6.01 300.46 15.02 315.48 24.04 330.5 27.04 333.51 27.04 339.52 27.04 345.52 30.05 348.53 30.05 339.52 33.05 333.51"/><polygon class="cls-212" points="33.05 333.51 30.05 339.52 30.05 348.53 48.07 339.52 33.05 333.51"/><polygon class="cls-213" points="165.25 522.79 147.22 510.78 129.2 495.75 123.19 489.74 111.17 483.74 96.15 474.72 81.12 468.71 72.11 459.7 57.09 447.68 57.21 453.69 57.09 447.68 72.11 459.7 81.12 468.71 96.15 474.72 111.17 483.74 123.19 489.74 129.2 495.75 147.22 510.78 165.25 522.79 177.27 528.8 165.25 519.79 147.22 504.77 129.2 489.74 114.17 480.73 105.16 474.72 90.14 468.71 81.12 462.7 69.11 453.69 60.09 444.68 54.08 438.67 51.08 429.65 45.07 417.63 39.06 405.62 36.05 396.6 33.05 384.58 30.05 378.57 27.04 375.57 30.05 393.6 33.05 399.61 36.05 411.63 42.06 426.65 51.08 444.68 57.09 453.69 63.1 462.7 75.11 477.73 81.12 483.74 81.12 486.74 87.13 489.74 99.15 498.76 114.17 510.78 132.2 519.79 150.23 528.8 165.25 537.82 171.26 537.82 177.27 528.8 165.25 522.79"/><polygon class="cls-214" points="30.05 348.53 27.04 351.53 27.04 363.55 27.04 375.57 30.05 369.56 30.05 348.53"/><polygon class="cls-215" points="15.11 308.97 12.02 267.41 0.12 255.39 0 255.39 15.07 309.2 15.11 308.97"/><polygon class="cls-216" points="24.16 198.3 51.08 185.84 63.1 180.27 36.05 186.28 24.04 198.3 15.02 213.32 27.04 213.32 24.16 198.3"/><polygon class="cls-217" points="15.02 213.32 9.01 225.34 24.04 255.39 15.02 213.32"/><polygon class="cls-218" points="171.26 537.82 177.27 540.82 183.28 543.83 189.29 546.83 201.31 549.84 177.27 528.8 171.26 537.82"/><polygon class="cls-219" points="57.09 180.27 45.19 180.27 87.13 159.24 48.07 165.25 45.07 180.27 36.05 186.28 63.1 180.27 57.09 180.27"/><polygon class="cls-220" points="288.44 390.59 243.37 384.58 249.38 402.61 255.39 414.63 261.4 426.65 282.43 402.61 288.44 390.59"/><polygon class="cls-221" points="24.04 255.39 3 240.37 0 255.39 0.12 255.39 24.04 255.39"/><polygon class="cls-222" points="237.36 480.73 288.44 453.69 237.36 471.72 237.36 480.73"/><polygon class="cls-223" points="255.42 507.82 255.51 507.77 255.42 507.82 261.44 516.67 264.4 507.77 267.41 498.76 276.42 480.73 282.43 465.71 288.44 453.69 255.39 507.77 255.42 507.82"/><polygon class="cls-224" points="255.39 507.77 288.44 453.69 237.36 480.73 255.39 507.77"/><polygon class="cls-225" points="177.27 528.8 201.31 549.84 231.35 519.79 177.27 528.8"/><polygon class="cls-226" points="261.4 426.65 297.45 417.63 300.44 396.71 261.4 426.65"/><polygon class="cls-227" points="96.27 108.17 96.23 108.17 96.13 108.19 93.14 114.17 90.14 120.18 96.15 120.18 96.27 108.17"/><polygon class="cls-228" points="219.33 549.84 228.35 546.83 234.36 543.83 240.37 540.82 243.37 537.82 252.38 531.81 231.35 519.79 219.33 549.84"/><polygon class="cls-229" points="201.31 549.84 207.31 549.84 219.33 549.84 231.35 519.79 201.31 549.84"/><polygon class="cls-230" points="231.35 519.79 252.38 531.81 255.38 507.83 231.35 519.79"/><polygon class="cls-231" points="255.38 507.83 252.38 531.81 261.4 516.78 261.44 516.67 255.42 507.82 255.38 507.83"/><polygon class="cls-232" points="99.15 33.05 102.16 27.04 105.16 21.03 107.89 14.69 78.12 24.04 99.15 33.05"/><polygon class="cls-233" points="107.89 14.69 103.14 11.26 95.49 8.62 78.12 24.04 107.89 14.69"/><polygon class="cls-234" points="132.2 63.1 132.2 75.11 132.2 78.12 138.19 81.06 135.21 69.11 135.21 68.64 132.2 57.09 132.2 63.1"/><polygon class="cls-235" points="102.16 27.04 99.15 33.05 99.15 39.06 96.17 45.02 96.27 45.07 96.17 45.02 96.15 45.07 96.15 48.07 102.16 45.07 107.89 14.69 105.16 21.03 102.16 27.04"/><polygon class="cls-236" points="99.15 33.05 78.12 24.04 63.1 30.05 84.13 33.05 99.15 33.05"/><polygon class="cls-237" points="96.05 44.97 63.1 30.05 60.09 48.07 96.15 45.07 96.05 44.97"/><polygon class="cls-238" points="84.13 33.05 63.1 30.05 96.05 44.97 84.13 33.05"/><polygon class="cls-239" points="129.2 48.07 132.2 57.09 135.21 68.64 135.21 51.08 135.23 51.01 126.19 45.07 129.2 48.07"/><polygon class="cls-240" points="135.23 51.01 141.22 33.05 144.22 27.04 126.19 45.07 135.23 51.01"/><polygon class="cls-241" points="144.22 27.04 138.21 21.03 132.2 18.03 120.18 15.02 117.3 27.04 144.22 27.04"/><polygon class="cls-242" points="117.3 27.04 120.18 15.02 114.17 15.02 107.89 14.69 117.18 27.04 117.3 27.04"/><polygon class="cls-243" points="48.07 135.21 48.07 165.25 87.13 159.24 48.07 135.21"/><polygon class="cls-244" points="96.15 45.07 60.09 48.07 96.15 48.07 96.15 45.07"/><polygon class="cls-245" points="63.1 114.17 45.07 129.2 90.14 120.18 63.1 114.17"/><polygon class="cls-246" points="45.07 129.2 48.07 135.21 90.14 120.18 45.07 129.2"/><polygon class="cls-247" points="90.14 150.23 90.14 135.21 90.14 126.19 90.14 120.18 48.07 135.21 90.14 156.24 90.14 150.23"/><polygon class="cls-248" points="90.14 156.24 48.07 135.21 87.13 159.24 90.14 156.24"/><polygon class="cls-249" points="45.19 117.18 63.1 114.17 48.07 111.17 45.07 117.18 45.07 129.2 63.1 114.17 45.19 117.18"/><polygon class="cls-95" points="90.14 120.18 93.14 114.17 96.13 108.19 63.22 114.17 96.13 108.19 96.15 108.16 99.15 96.15 48.07 111.17 63.1 114.17 90.14 120.18"/><polygon class="cls-250" points="60.09 48.07 54.08 69.11 51.08 87.13 48.07 99.15 63.1 87.13 60.09 48.07"/><polygon class="cls-251" points="96.15 48.07 60.09 48.07 63.1 87.13 96.15 48.07"/><polygon class="cls-252" points="63.1 87.13 48.07 99.15 48.07 111.17 99.15 96.15 63.1 87.13"/><polygon class="cls-253" points="288.44 453.69 291.44 441.67 294.45 429.65 297.45 417.63 261.4 426.65 288.44 453.69"/><polygon class="cls-254" points="15.02 309.47 15.14 309.47 15.09 309.28 15.02 309.47"/><polygon class="cls-255" points="144.22 294.45 138.21 282.43 132.2 267.41 126.19 273.42 144.22 294.45"/><polygon class="cls-256" points="84.26 300.38 105.16 288.44 126.19 273.42 132.2 267.41 87.13 279.43 84.26 300.38"/><polygon class="cls-257" points="48.07 237.36 54.08 195.3 15.12 309.18 15.14 309.47 36.05 270.41 48.07 237.36"/><polygon class="cls-254" points="15.07 309.2 15.02 309.47 15.09 309.28 15.07 309.2"/><polygon class="cls-258" points="189.29 279.43 132.2 267.41 165.25 291.44 189.29 279.43"/><polygon class="cls-259" points="138.21 231.35 132.2 267.41 189.29 279.43 138.21 231.35"/><polygon class="cls-260" points="87.13 279.43 114.29 240.37 78.12 279.43 87.13 279.43"/><polygon class="cls-261" points="144.22 294.45 165.25 291.44 132.2 267.41 138.21 282.43 144.22 294.45"/><polygon class="cls-254" points="15.09 309.28 15.14 309.47 15.12 309.18 15.09 309.28"/><polygon class="cls-262" points="102.16 384.58 108.16 399.61 114.17 411.63 117.18 417.63 129.2 363.55 102.16 384.58"/><polygon class="cls-263" points="90.34 348.45 90.14 348.53 90.26 348.53 90.34 348.45"/><polygon class="cls-264" points="105.16 288.44 84.26 300.38 84.25 300.46 90.14 348.53 126.19 273.42 105.16 288.44"/><polygon class="cls-263" points="144.22 294.45 126.19 273.42 90.14 348.53 90.34 348.45 144.22 294.45"/><polygon class="cls-265" points="90.26 348.53 102.16 384.58 129.2 363.55 90.26 348.53"/><polygon class="cls-266" points="90.14 348.53 93.14 360.55 102.16 384.58 90.26 348.53 90.14 348.53"/><polygon class="cls-267" points="57.09 303.46 60.09 303.46 69.11 303.46 78.12 279.43 57.09 303.46"/><polygon class="cls-268" points="114.29 240.37 108.16 243.37 102.16 246.37 90.14 258.39 75.11 270.41 66.1 282.43 60.09 294.45 57.09 303.46 78.12 279.43 114.29 240.37"/><polygon class="cls-269" points="78.12 279.43 69.11 303.46 87.13 279.43 78.12 279.43"/><polygon class="cls-90" points="84.26 300.38 84.13 300.46 69.11 303.46 69.11 306.47 75.11 321.49 84.13 336.51 90.14 348.53 84.25 300.46 84.26 300.38"/><polygon class="cls-270" points="84.26 300.38 87.13 279.43 69.11 303.46 84.13 300.46 84.26 300.38"/><polygon class="cls-271" points="132.2 267.41 114.29 240.37 87.13 279.43 132.2 267.41"/><polygon class="cls-272" points="60.09 222.34 87.13 243.37 75.11 204.31 60.09 222.34"/><polygon class="cls-273" points="108.16 225.34 114.17 213.32 99.15 213.32 108.16 225.34"/><polygon class="cls-274" points="96.15 237.36 102.16 234.36 105.16 231.35 105.18 231.3 93.14 225.34 96.15 237.36"/><polygon class="cls-275" points="84.13 210.32 75.11 204.31 93.14 225.34 108.16 225.34 96.15 219.33 84.13 210.32"/><polygon class="cls-276" points="105.18 231.3 108.16 225.34 93.14 225.34 105.18 231.3"/><polygon class="cls-277" points="75.11 204.31 87.13 243.37 93.14 240.37 96.15 237.36 93.14 225.34 75.11 204.31"/><polygon class="cls-254" points="15.14 309.47 24.04 306.47 30.05 303.46 39.06 297.45 36.05 270.41 15.14 309.47"/><polygon class="cls-278" points="51.07 279.35 51.08 279.43 51.09 279.36 51.07 279.35"/><polygon class="cls-279" points="69.11 246.37 87.11 243.39 87.13 243.37 60.09 222.34 69.11 246.37"/><polygon class="cls-280" points="51.34 279.16 57.09 273.42 63.1 267.41 69.11 261.4 78.12 252.38 81.12 249.38 84.13 246.37 87.11 243.39 69.11 246.37 51.34 279.16"/><polygon class="cls-94" points="60.09 222.34 51.09 279.36 51.12 279.38 51.34 279.16 69.11 246.37 60.09 222.34"/><polygon class="cls-281" points="36.05 270.41 39.06 297.45 45.07 288.44 51.08 279.43 51.07 279.35 36.05 270.41"/><polygon class="cls-282" points="153.23 195.3 138.21 231.35 174.26 222.34 153.23 195.3"/><polygon class="cls-283" points="207.31 258.26 174.26 222.34 138.21 231.35 207.31 258.39 207.31 258.26"/><polygon class="cls-284" points="147.22 198.3 138.21 231.35 153.23 195.3 147.22 198.3"/><polygon class="cls-285" points="108.16 207.31 105.23 204.38 99.15 213.32 114.17 213.32 111.17 210.32 108.16 207.31"/><polygon class="cls-284" points="132.2 213.32 138.21 231.35 147.22 198.3 132.2 213.32"/><polygon class="cls-286" points="108.11 201.24 93.14 195.3 87.25 192.29 93.14 195.3 90.14 174.26 63.1 180.27 69.11 183.28 75.11 186.28 81.12 189.29 87.13 192.29 90.14 195.3 96.15 198.3 99.15 201.31 105.16 204.31 105.23 204.38 105.28 204.31 105.23 204.38 108.16 207.31 111.17 210.32 114.17 213.32 108.16 201.31 108.11 201.24"/><polygon class="cls-287" points="108.28 201.31 108.11 201.24 108.16 201.31 114.17 213.32 147.22 198.3 108.28 201.31"/><polygon class="cls-288" points="114.17 213.32 132.2 213.32 147.22 198.3 114.17 213.32"/><polygon class="cls-289" points="243.41 393.7 243.37 393.6 219.33 405.62 234.36 405.62 243.41 393.7"/><polygon class="cls-290" points="75.11 204.31 60.09 198.3 54.08 195.3 60.09 222.34 75.11 204.31"/><polygon class="cls-291" points="51.08 186.28 60.09 189.29 75.11 198.3 99.15 213.32 90.14 195.3 51.2 186.28 90.14 195.3 87.13 192.29 81.12 189.29 75.11 186.28 69.11 183.28 63.1 180.27 51.08 185.84 24.16 198.3 54.08 195.3 51.08 186.28"/><polygon class="cls-292" points="24.16 198.3 27.04 213.32 54.08 195.3 24.16 198.3"/><polygon class="cls-293" points="105.23 204.38 105.16 204.31 99.15 201.31 96.15 198.3 99.15 213.32 105.23 204.38"/><polygon class="cls-294" points="228.35 369.56 225.34 384.58 219.33 405.62 243.37 393.6 228.35 369.56"/><polygon class="cls-295" points="96.15 198.3 90.14 195.3 99.15 213.32 96.15 198.3"/><polygon class="cls-296" points="234.36 459.7 237.36 471.72 261.4 426.65 231.35 447.68 234.36 459.7"/><polygon class="cls-297" points="231.35 339.52 225.34 330.5 228.35 342.52 228.35 369.56 237.36 354.54 231.35 339.52"/><polygon class="cls-298" points="240.37 381.58 237.36 363.55 237.36 354.54 228.35 369.56 243.37 393.6 240.37 381.58"/><polygon class="cls-299" points="36.05 270.41 51.07 279.35 48.07 237.36 36.05 270.41"/><polygon class="cls-300" points="222.34 420.64 225.34 429.65 231.35 447.68 261.4 426.65 222.34 414.63 222.34 420.64"/><polygon class="cls-301" points="90.14 174.26 93.14 180.27 93.14 141.22 96.15 120.18 90.14 120.18 90.14 126.19 90.14 135.21 90.14 150.23 90.14 156.24 87.13 159.24 90.14 162.25 90.14 174.26"/><polygon class="cls-302" points="288.44 372.57 279.43 363.55 270.41 357.54 261.4 354.54 294.3 381.37 288.44 372.57"/><polygon class="cls-303" points="51.08 279.43 51.12 279.38 51.09 279.36 51.08 279.43"/><polygon class="cls-304" points="243.37 357.54 243.37 366.56 243.37 384.58 261.4 354.54 243.37 357.54"/><polygon class="cls-305" points="294.45 381.76 294.45 381.58 294.3 381.37 261.4 354.54 288.44 390.59 294.45 381.76"/><polygon class="cls-306" points="252.38 348.53 234.36 339.52 237.36 342.52 240.37 351.53 243.37 357.54 261.4 354.54 252.38 348.53"/><polygon class="cls-307" points="219.33 405.62 222.34 414.63 234.36 405.62 219.33 405.62"/><polygon class="cls-308" points="222.34 414.63 261.4 426.65 234.36 405.62 222.34 414.63"/><polygon class="cls-309" points="249.38 408.62 243.41 393.7 234.36 405.62 261.4 426.65 255.39 417.63 249.38 408.62"/><polygon class="cls-310" points="186.28 414.63 144.22 450.69 216.33 414.63 186.28 414.63"/><polygon class="cls-311" points="135.33 393.6 147.22 426.65 165.25 378.57 150.23 387.59 135.21 393.6 117.18 420.64 141.22 447.68 135.33 393.6"/><polygon class="cls-312" points="54.08 195.3 27.04 213.32 24.04 255.39 36.05 228.35 54.08 195.3"/><polygon class="cls-313" points="141.22 447.68 144.22 435.66 147.22 426.65 135.33 393.6 141.22 447.68"/><polygon class="cls-314" points="117.18 420.64 105.16 444.68 141.22 447.68 117.18 420.64"/><polygon class="cls-315" points="15.12 309.18 15.11 308.97 15.07 309.2 15.09 309.28 15.12 309.18"/><polygon class="cls-316" points="183.28 360.55 192.29 339.52 183.28 351.53 165.25 378.57 180.27 375.57 183.28 360.55"/><polygon class="cls-317" points="105.16 444.68 69.11 453.69 81.12 462.7 90.14 468.71 105.16 474.72 114.17 480.73 129.2 489.74 141.22 447.68 105.16 444.68"/><polygon class="cls-318" points="153.23 417.63 171.26 393.6 180.27 375.57 147.22 426.65 153.23 417.63"/><polygon class="cls-319" points="54.08 195.3 36.05 228.35 24.04 255.39 15.11 308.97 15.12 309.18 54.08 195.3"/><polygon class="cls-320" points="228.35 450.69 219.33 423.64 216.33 414.63 144.22 450.69 237.36 480.73 234.36 474.72 228.35 450.69"/><polygon class="cls-321" points="150.35 429.65 186.28 414.63 216.33 414.63 195.3 342.52 186.28 369.56 174.26 393.6 162.25 411.63 150.23 429.65 144.22 450.69 186.28 414.63 150.35 429.65"/><polygon class="cls-322" points="216.33 408.62 216.33 402.61 216.78 400.82 219.45 318.48 219.33 318.48 207.31 327.5 195.3 342.52 216.33 414.63 216.33 408.62"/><polygon class="cls-323" points="129.2 363.55 117.18 417.63 117.18 420.64 135.21 393.6 129.2 363.55"/><polygon class="cls-324" points="219.33 390.59 222.34 372.57 222.34 354.54 222.34 333.51 222.34 318.48 219.45 318.48 216.78 400.82 219.33 390.59"/><polygon class="cls-110" points="141.22 447.68 129.2 489.74 177.27 528.8 144.22 450.69 141.22 447.68"/><polygon class="cls-325" points="60.09 222.34 54.08 195.3 48.07 237.36 60.09 222.34"/><polygon class="cls-326" points="177.27 528.8 237.36 480.73 144.22 450.69 177.27 528.8"/><polygon class="cls-327" points="51.07 279.35 51.09 279.36 60.09 222.34 48.07 237.36 51.07 279.35"/><polygon class="cls-328" points="33.05 384.58 36.05 384.58 51.08 387.59 57.09 390.59 69.11 405.62 81.12 420.64 96.15 438.67 105.16 444.68 99.15 438.67 96.15 432.66 90.14 426.65 81.12 414.63 72.11 402.61 63.1 390.59 60.09 387.59 54.08 381.58 45.07 381.58 36.05 378.57 30.05 369.56 27.04 375.57 30.05 378.57 33.05 384.58"/><polygon class="cls-329" points="216.33 408.62 216.33 414.63 216.78 400.82 216.33 402.61 216.33 408.62"/><polygon class="cls-328" points="294.45 375.57 288.44 363.55 273.42 354.54 249.38 342.52 231.35 330.5 225.34 324.49 225.34 309.47 225.34 294.45 222.34 276.42 216.33 273.42 219.33 312.48 219.31 312.5 219.45 312.48 219.31 312.5 207.31 321.49 195.3 333.51 180.27 348.53 180.25 348.57 180.39 348.53 180.25 348.57 162.25 378.57 147.22 387.59 135.21 393.6 150.23 387.59 165.25 378.57 183.28 351.53 192.29 339.52 183.28 360.55 180.27 375.57 171.26 393.6 153.23 417.63 147.22 426.65 144.22 435.66 141.22 447.68 144.22 450.69 150.23 429.65 162.25 411.63 174.26 393.6 186.28 369.56 195.3 342.52 207.31 327.5 219.33 318.48 219.45 318.48 222.34 318.48 222.34 333.51 222.34 354.54 222.34 372.57 219.33 390.59 216.78 400.82 216.33 414.63 219.33 423.64 228.35 450.69 234.36 474.72 237.36 480.73 237.36 471.72 234.36 459.7 231.35 447.68 225.34 429.65 222.34 420.64 222.34 414.63 219.33 405.62 225.34 384.58 228.35 369.56 228.35 342.52 225.34 330.5 231.35 339.52 237.36 354.54 237.36 363.55 240.37 381.58 243.37 393.6 243.41 393.7 243.49 393.6 243.41 393.7 249.38 408.62 255.39 417.63 261.4 426.65 255.39 414.63 249.38 402.61 243.37 384.58 243.37 366.56 243.37 357.54 240.37 351.53 237.36 342.52 234.36 339.52 252.38 348.53 261.4 354.54 270.41 357.54 279.43 363.55 288.44 372.57 294.3 381.37 294.57 381.58 294.45 381.76 294.45 387.59 300.46 396.6 297.45 384.58 294.45 375.57"/><polygon class="cls-330" points="294.45 381.76 294.57 381.58 294.3 381.37 294.45 381.58 294.45 381.76"/><polygon class="cls-331" points="75.11 198.3 60.09 189.29 51.08 186.28 54.08 195.3 60.09 198.3 75.11 204.31 84.13 210.32 96.15 219.33 108.16 225.34 99.15 213.32 75.11 198.3"/><polygon class="cls-332" points="261.4 201.31 264.4 201.31 267.41 201.31 267.41 198.3 267.41 192.29 264.4 186.28 263.65 185.53 258.39 183.28 255.39 186.28 258.39 195.3 261.4 201.31"/><polygon class="cls-333" points="262.25 184.13 258.39 183.28 263.65 185.53 262.25 184.13"/><polygon class="cls-334" points="261.4 183.28 258.39 183.28 262.25 184.13 261.4 183.28"/><polygon class="cls-335" points="27.04 213.32 15.02 213.32 24.04 255.39 27.04 213.32"/><polygon class="cls-336" points="95.49 8.62 63.1 30.05 78.12 24.04 95.49 8.62"/><polygon class="cls-337" points="117.18 27.04 107.89 14.69 102.16 45.07 117.18 27.04"/><polygon class="cls-338" points="117.18 27.04 126.19 45.07 144.22 27.04 117.3 27.04 117.18 27.04"/><polygon class="cls-339" points="156.24 129.2 168.26 150.23 177.27 99.15 156.24 129.2"/><polygon class="cls-340" points="231.47 231.35 231.35 231.35 231.49 231.38 231.47 231.35"/><polygon class="cls-341" points="225.34 240.37 237.36 252.38 231.35 231.35 225.34 240.37"/><polygon class="cls-342" points="228.35 246.37 231.35 249.38 237.36 252.38 225.34 240.37 228.35 246.37"/><polygon class="cls-343" points="243.37 249.38 246.37 234.36 231.49 231.38 243.37 249.38"/><polygon class="cls-344" points="231.35 231.35 237.36 252.38 243.37 249.38 231.49 231.38 231.35 231.35"/><polygon class="cls-345" points="249.38 240.37 246.37 234.36 243.37 249.38 249.38 240.37"/><polygon class="cls-340" points="231.47 231.35 231.49 231.38 246.37 234.36 240.37 231.35 231.47 231.35"/><polygon class="cls-346" points="207.31 258.39 138.21 231.35 189.29 279.43 207.31 258.39"/><polygon class="cls-347" points="225.34 324.49 255.39 330.5 231.35 294.45 225.34 324.49"/><polygon class="cls-348" points="144.34 294.49 144.22 294.45 144.32 294.61 144.34 294.49"/><polygon class="cls-349" points="144.34 294.49 144.32 294.61 180.27 348.53 198.3 315.48 144.34 294.49"/><polygon class="cls-350" points="180.27 375.57 165.25 378.57 147.22 426.65 180.27 375.57"/><polygon class="cls-351" points="30.2 369.58 30.17 369.56 30.2 369.58 57.09 372.57 30.05 348.53 30.05 369.56 30.2 369.58"/><polygon class="cls-352" points="261.4 354.54 243.37 384.58 288.44 390.59 261.4 354.54"/><polygon class="cls-353" points="237.36 471.72 288.44 453.69 261.4 426.65 237.36 471.72"/><polygon class="cls-354" points="39.06 297.45 57.09 282.43 81.12 258.39 90.14 252.38 111.17 231.35 114.17 225.34 114.17 219.33 108.16 225.34 105.18 231.3 102.16 234.36 96.15 237.36 93.14 240.37 87.11 243.39 51.09 279.36 39.06 297.45"/><path class="cls-355" d="M313.7,1057.34" transform="translate(-262.5 -612.66)"/><path class="cls-355" d="M313.58,1057.34" transform="translate(-262.5 -612.66)"/><path class="cls-131" d="M499.86,826Z" transform="translate(-262.5 -612.66)"/><polyline class="cls-133" points="236.7 214.24 237.08 212.88 238.2 213.73"/></g></svg>