<?xml version="1.0" encoding="utf-8"?>
<!-- Generator: Adobe Illustrator 21.0.0, SVG Export Plug-In . SVG Version: 6.00 Build 0)  -->
<svg version="1.1" id="Layer_1" xmlns="http://www.w3.org/2000/svg" xmlns:xlink="http://www.w3.org/1999/xlink" x="0px" y="0px"
	 viewBox="0 0 33 33" style="enable-background:new 0 0 33 33;" xml:space="preserve">
<title>link</title>
<g id="Outcoming_Link">
	<g id="_2-interface_-_outcoming_link">
		<g id="_2-interface_-_outcoming_link-2">
			<path d="M28.6,29.7c0,0.6-0.5,1.1-1.1,1.1l0,0H3.3c-0.6,0-1.1-0.5-1.1-1.1l0,0V5.5c0-0.6,0.5-1.1,1.1-1.1h14.3V2.2H2.2
				C1,2.2,0,3.2,0,4.4c0,0,0,0,0,0v26.4C0,32,1,33,2.2,33h26.4c1.2,0,2.2-1,2.2-2.2V15.4h-2.2V29.7z M32.9,1.1L32.9,1.1
				c0-0.3-0.1-0.5-0.3-0.7c0,0,0-0.1-0.1-0.1c0,0-0.1,0-0.1-0.1C32.4,0.1,32.1,0,31.9,0h-0.1l-11,0.1c-0.6,0-1.1,0.5-1,1.1
				c0,0.6,0.5,1.1,1,1.1c0,0,0,0,0,0l8.4-0.1l-17.9,18c-0.4,0.4-0.4,1.1,0,1.5c0,0,0,0,0,0c0.4,0.4,1.1,0.4,1.5,0l17.9-18l0.1,8.4
				c0,0.6,0.6,1.1,1.2,1c0.5,0,1-0.5,1-1L32.9,1.1z"/>
		</g>
	</g>
</g>
</svg>
