<?xml version="1.0" encoding="utf-8"?>
<!-- Generator: Adobe Illustrator 20.1.0, SVG Export Plug-In . SVG Version: 6.00 Build 0)  -->
<svg version="1.1" id="Layer_1" xmlns="http://www.w3.org/2000/svg" xmlns:xlink="http://www.w3.org/1999/xlink" x="0px" y="0px"
	 viewBox="0 0 20 20" style="enable-background:new 0 0 20 20;" xml:space="preserve">
<style type="text/css">
	.st0{fill:#FFFFFF;}
</style>
<path class="st0" d="M2.5,4.5C4.1,2.9,6.2,2,8.5,2s4.4,0.9,6,2.5s2.5,3.7,2.5,6v1.3l2.1-2.1c0.2-0.2,0.5-0.2,0.7,0s0.2,0.5,0,0.7
	l-3,3c-0.1,0.1-0.2,0.1-0.4,0.1s-0.3,0-0.4-0.1l-3-3c-0.2-0.2-0.2-0.5,0-0.7s0.5-0.2,0.7,0l2.1,2.1v-1.3C16,6.4,12.6,3,8.5,3
	S1,6.4,1,10.5S4.4,18,8.5,18C8.8,18,9,18.2,9,18.5S8.8,19,8.5,19c-2.3,0-4.4-0.9-6-2.5S0,12.8,0,10.5S0.9,6.1,2.5,4.5L2.5,4.5z"/>
</svg>
