<svg id="Layer_1" data-name="Layer 1" xmlns="http://www.w3.org/2000/svg" viewBox="0 0 19.95 17"><defs><style>.cls-1{fill:#e3e3e3;}</style></defs><title>replay</title><path class="cls-1" d="M2.5,4.5a8.45,8.45,0,0,1,12,0,8.39,8.39,0,0,1,2.5,6v1.3l2.1-2.1a.49.49,0,1,1,.7.7l-3,3c-.1.1-.2.1-.4.1s-.3,0-.4-.1l-3-3a.49.49,0,1,1,.7-.7l2.1,2.1V10.5A7.26,7.26,0,0,0,8.5,3,7.55,7.55,0,0,0,1,10.5,7.55,7.55,0,0,0,8.5,18a.5.5,0,0,1,0,1A8.54,8.54,0,0,1,0,10.5a8.39,8.39,0,0,1,2.5-6Z" transform="translate(0 -2)"/></svg>