<?xml version="1.0" encoding="utf-8"?>
<!-- Generated by IcoMoon.io -->
<!DOCTYPE svg PUBLIC "-//W3C//DTD SVG 1.1//EN" "http://www.w3.org/Graphics/SVG/1.1/DTD/svg11.dtd">
<svg version="1.1" xmlns="http://www.w3.org/2000/svg" xmlns:xlink="http://www.w3.org/1999/xlink" width="576" height="72" viewBox="0 0 576 72">
<svg id="icon-link" width="24" height="24" viewBox="0 0 24 24" x="0" y="0">
<path fill="#292929" d="M18.984 3c1.078 0 2.016 0.938 2.016 2.016v13.969c0 1.078-0.938 2.016-2.016 2.016h-13.969c-1.125 0-2.016-0.938-2.016-2.016v-3.984h2.016v3.984h13.969v-13.969h-13.969v3.984h-2.016v-3.984c0-1.078 0.891-2.016 2.016-2.016h13.969zM10.078 15.609l2.578-2.625h-9.656v-1.969h9.656l-2.578-2.625 1.406-1.406 5.016 5.016-5.016 5.016z"></path>
</svg>
<svg id="icon-arrow-back" width="24" height="24" viewBox="0 0 24 24" x="24" y="0">
<path fill="#292929" d="M21 11.016v1.969h-14.156l3.563 3.609-1.406 1.406-6-6 6-6 1.406 1.406-3.563 3.609h14.156z"></path>
</svg>
<svg id="icon-mail" width="24" height="24" viewBox="0 0 24 24" x="48" y="0">
<path fill="#292929" d="M12 11.016l8.016-5.016h-16.031zM20.016 18v-9.984l-8.016 4.969-8.016-4.969v9.984h16.031zM20.016 3.984c1.078 0 1.969 0.938 1.969 2.016v12c0 1.078-0.891 2.016-1.969 2.016h-16.031c-1.078 0-1.969-0.938-1.969-2.016v-12c0-1.078 0.891-2.016 1.969-2.016h16.031z"></path>
</svg>
<svg id="icon-replay" width="24" height="24" viewBox="0 0 24 24" x="72" y="0">
<path fill="#292929" d="M12 5.016c4.406 0 8.016 3.563 8.016 7.969s-3.609 8.016-8.016 8.016-8.016-3.609-8.016-8.016h2.016c0 3.328 2.672 6 6 6s6-2.672 6-6-2.672-6-6-6v4.031l-5.016-5.016 5.016-5.016v4.031z"></path>
</svg>
<svg id="icon-enlarge2" width="24" height="24" viewBox="0 0 24 24" x="0" y="24">
<path fill="#292929" d="M24 0v9.75l-3.75-3.75-4.5 4.5-2.25-2.25 4.5-4.5-3.75-3.75zM10.5 15.75l-4.5 4.5 3.75 3.75h-9.75v-9.75l3.75 3.75 4.5-4.5z"></path>
</svg>
<svg id="icon-github" width="24" height="24" viewBox="0 0 24 24" x="0" y="48">
<path fill="#292929" d="M12 0.296c-6.627 0-12 5.372-12 12 0 5.302 3.438 9.8 8.206 11.387 0.6 0.111 0.82-0.26 0.82-0.577 0-0.286-0.011-1.231-0.016-2.234-3.339 0.726-4.043-1.416-4.043-1.416-0.546-1.387-1.332-1.756-1.332-1.756-1.089-0.745 0.082-0.729 0.082-0.729 1.205 0.085 1.839 1.237 1.839 1.237 1.070 1.834 2.807 1.304 3.492 0.997 0.108-0.775 0.418-1.305 0.762-1.605-2.666-0.303-5.467-1.332-5.467-5.93 0-1.31 0.469-2.381 1.237-3.221-0.125-0.302-0.536-1.523 0.116-3.176 0 0 1.008-0.322 3.301 1.23 0.957-0.266 1.984-0.399 3.004-0.404 1.020 0.005 2.047 0.138 3.006 0.404 2.291-1.553 3.297-1.23 3.297-1.23 0.653 1.653 0.243 2.873 0.118 3.176 0.769 0.84 1.235 1.911 1.235 3.221 0 4.609-2.807 5.624-5.479 5.921 0.43 0.372 0.814 1.103 0.814 2.222 0 1.606-0.014 2.898-0.014 3.293 0 0.319 0.216 0.694 0.824 0.576 4.765-1.588 8.199-6.085 8.199-11.385 0-6.628-5.373-12-12-12z"></path>
</svg>
<svg id="icon-codepen" width="24" height="24" viewBox="0 0 24 24" x="24" y="48">
<path fill="#292929" d="M22.166 8.626l-10.5-7c-0.252-0.168-0.58-0.168-0.832 0l-10.5 7c-0.209 0.139-0.334 0.373-0.334 0.624v7c0 0.251 0.125 0.485 0.334 0.624l10.5 7c0.126 0.084 0.271 0.126 0.416 0.126s0.29-0.042 0.416-0.126l10.5-7c0.209-0.139 0.334-0.373 0.334-0.624v-7c0-0.251-0.125-0.485-0.334-0.624zM11.25 15.349l-3.898-2.599 3.898-2.599 3.898 2.599-3.898 2.599zM12 8.849v-5.197l8.398 5.599-3.898 2.599-4.5-3zM10.5 8.849l-4.5 3-3.898-2.599 8.398-5.599v5.197zM4.648 12.75l-3.148 2.099v-4.197l3.148 2.099zM6 13.651l4.5 3v5.197l-8.398-5.599 3.898-2.599zM12 16.651l4.5-3 3.898 2.599-8.398 5.599v-5.197zM17.852 12.75l3.148-2.099v4.197l-3.148-2.099z"></path>
</svg>
</svg>
